<svg xmlns="http://www.w3.org/2000/svg" width="1280" height="760"><defs><linearGradient id="0" gradientUnits="userSpaceOnUse" x1="674.3" y1="1163.29" x2="678.62" y2="1405.35"><stop stop-color="#44171a" stop-opacity=".941"/><stop offset="1" stop-color="#ffe682"/></linearGradient><linearGradient id="1" gradientUnits="userSpaceOnUse" x1="296.09" y1="545.19" x2="306.89" y2="1167.62"><stop stop-color="#6a5550"/><stop offset="1" stop-color="#fff"/></linearGradient></defs><g transform="translate(0-520)"><path d="m-4.697 1003.04l299.53-126.84 259.04 112.69 90.77-39.982 102.66 19.451 159.93-79.965 106.98 17.29 46.47-15.13 219.33 49.45 42.18 387.11-1473.94 42.14-51.869-270.15z" fill="#27161c"/><path d="m-10.697 1011.04l299.53-126.84 259.04 112.69 90.77-39.982 102.66 19.451 159.93-79.965 106.98 17.29 46.47-15.13 225.33 61.45 36.18 375.11-1473.94 42.14-51.869-270.15z" fill="#331f26"/><path d="m73.48 1165.46l17.29-620.27 492.76 4.322-278.8 620.27z" fill="url(#1)"/><path d="m0 1132l80 0 0-30 120 0 0 30 70 0 0-30 90 0 0 30 60 0 0 30 60 0 0-20 120 0 0 20 40 0 0-30 120 0 0-20 110 0 0 30 50 0 0-20 110 0 0 30 60 0 0-40 60 0 0-20 110 0 0 20 20 0 0 20 30 0 100 260-1680 40 0-320z" fill="#ecbb44"/><path d="m-10 1140l80 0 0-30 120 0 0 30 70 0 0-30 90 0 0 30 60 0 0 30 60 0 0-20 120 0 0 20 40 0 0-30 120 0 0-20 110 0 0 30 50 0 0-20 110 0 0 30 60 0 0-40 60 0 0-20 110 0 0 20 20 0 0 20 30 0 100 260-1680 40 0-320z" fill="url(#0)"/><g fill="#fff" fill-rule="evenodd"><path d="m136.01 1126.42l6.113 0 0 6.87-6.113 0z"/><path d="m155.11 1126.03l6.113 0 0 6.88-6.113 0z"/><path d="m331.97 1117.9l6.113 0 0 6.88-6.113 0z"/><path d="m391.81 1147.38l6.113 0 0 6.87-6.113 0z"/><path d="m372.55 1146.75l6.113 0 0 6.88-6.113 0z"/><path d="m350.55 1150.75l6.113 0 0 6.88-6.113 0z"/><path d="m480.55 1160.75l6.113 0 0 6.88-6.113 0z"/><path d="m507.33 1160.09l6.113 0 0 6.88-6.113 0z"/><path d="m533.33 1160.09l6.113 0 0 6.88-6.113 0z"/><path d="m561.33 1160.09l6.113 0 0 6.88-6.113 0z"/><path d="m646.77 1149.75l6.113 0 0 6.87-6.113 0z"/><path d="m663.93 1150.22l6.113 0 0 6.87-6.113 0z"/><path d="m695.93 1150.22l6.113 0 0 6.87-6.113 0z"/><path d="m711.93 1150.22l6.113 0 0 6.87-6.113 0z"/><path d="m763.9 1127.81l6.112 0 0 6.88-6.112 0z"/><path d="m787.9 1127.81l6.112 0 0 6.88-6.112 0z"/><path d="m833.9 1127.81l6.112 0 0 6.88-6.112 0z"/><path d="m821.9 1127.81l6.112 0 0 6.88-6.112 0z"/><path d="m803.9 1145.81l6.112 0 0 6.88-6.112 0z"/><path d="m819.9 1145.81l6.112 0 0 6.88-6.112 0z"/><path d="m927.18 1141.64l6.113 0 0 6.88-6.113 0z"/><path d="m951.18 1141.64l6.113 0 0 6.88-6.113 0z"/><path d="m979.18 1141.64l6.113 0 0 6.88-6.113 0z"/><path d="m999.18 1141.64l6.111 0 0 6.88-6.111 0z"/><g transform="scale(1-1)"><path d="m1101.18-1136.52l6.11 0 0 6.88-6.11 0z"/><path d="m1125.18-1136.52l6.11 0 0 6.88-6.11 0z"/><path d="m1173.18-1112.52l6.11 0 0 6.88-6.11 0z"/><path d="m1199.18-1120.52l6.11 0 0 6.88-6.11 0z"/></g><path d="m1139.18 1149.64l6.11 0 0 6.88-6.11 0z"/><path d="m1169.97 1123.5l6.12 0 0 6.88-6.12 0z"/><path d="m1233.97 1105.5l6.12 0 0 6.88-6.12 0z"/><path d="m1249.97 1129.5l6.12 0 0 6.88-6.12 0z"/><path d="m1227.97 1123.5l6.12 0 0 6.88-6.12 0z"/></g><g stroke="#fff" stroke-width="3" fill="none"><path d="m298 988.11c385.72 77.22 715.6-15.07 987.22-284.25"/><path d="m301.06 1004c359.62 72.33 635.01 46.27 988.75-191.03"/></g><g fill="none"><g transform="translate(0 2)" stroke="#000" stroke-width="3"><path d="m298 988.11c385.72 77.22 715.6-15.07 987.22-284.25"/><path d="m301.06 1004c359.62 72.33 635.01 46.27 988.75-191.03"/></g><g transform="translate(4)" stroke="#ecbb44"><path d="m239.89 1208.68l72.4-55.11-71.32-38.902 62.68-38.902-59.43-39.797 51.49-29.518-50.43-33.621 45.846-24.451-45.08-25.979 38.969-21.395-36.677-21.395 32.856-19.867-33.621-24.451 30.564-21.395-29.8-16.81 26.744-13.754-25.979-17.574 22.923-12.226" stroke-width="3"/><g><g><path d="m75 1190l165-40-120-90 120-40-90-55 90-35-70-40 80-40-60-25 60-30-40-15 40-20" stroke-width="4"/><g><g><path d="m220 740l-160 500zm30 0l-10 500zm20 0l50 470z" stroke-width="12"/><path d="m240 1210l-140-85 140-45-100-70 100-40-80-50 85-30-65-30 70-40-50-20 50-20-30-20" stroke-width="4"/></g><path d="m314.81 1192.13l-74.12-37.441 67.24-42.79-61.892-38.21 53.49-38.21-55.02-34.385 48.903-27.508-48.903-27.508 45.08-25.979-42.03-22.16 35.15-18.338-33.621-22.16 30.564-20.631-31.33-25.22 28.27-13.754-28.27-17.574 25.979-15.282" stroke-width="3"/></g></g><g><path d="m200 740l90 0" stroke-width="8"/><g stroke-width="6"><path d="m230 710l0 30"/><path d="m250 710l0 30"/></g></g></g></g></g><g stroke="#27161c"><path d="m239.89 1208.68l72.4-55.11-71.32-38.902 62.68-38.902-59.43-39.797 51.49-29.518-50.43-33.621 45.846-24.451-45.08-25.979 38.969-21.395-36.677-21.395 32.856-19.867-33.621-24.451 30.564-21.395-29.8-16.81 26.744-13.754-25.979-17.574 22.923-12.226" fill="none" stroke-width="3"/><g><g><path d="m75 1190l165-40-120-90 120-40-90-55 90-35-70-40 80-40-60-25 60-30-40-15 40-20" fill="none" stroke-width="4"/><g><g><path d="m220 740l-160 500zm30 0l-10 500zm20 0l50 470z" fill="#fff" stroke-width="12"/><path d="m240 1210l-140-85 140-45-100-70 100-40-80-50 85-30-65-30 70-40-50-20 50-20-30-20" fill="none" stroke-width="4"/></g><path d="m314.81 1192.13l-74.12-37.441 67.24-42.79-61.892-38.21 53.49-38.21-55.02-34.385 48.903-27.508-48.903-27.508 45.08-25.979-42.03-22.16 35.15-18.338-33.621-22.16 30.564-20.631-31.33-25.22 28.27-13.754-28.27-17.574 25.979-15.282" fill="none" stroke-width="3"/></g></g><g fill="none"><path d="m200 740l90 0" stroke-width="8"/><g stroke-width="6"><path d="m230 710l0 30"/><path d="m250 710l0 30"/></g></g></g></g></g></svg>