<?xml version="1.0" encoding="UTF-8" standalone="no"?>
<svg
   xmlns:dc="http://purl.org/dc/elements/1.1/"
   xmlns:cc="http://creativecommons.org/ns#"
   xmlns:rdf="http://www.w3.org/1999/02/22-rdf-syntax-ns#"
   xmlns:svg="http://www.w3.org/2000/svg"
   xmlns="http://www.w3.org/2000/svg"
   xmlns:sodipodi="http://sodipodi.sourceforge.net/DTD/sodipodi-0.dtd"
   xmlns:inkscape="http://www.inkscape.org/namespaces/inkscape"
   viewBox="0 0 293 85"
   id="svg2"
   version="1.1"
   inkscape:version="0.48.5 r10040"
   width="100%"
   height="100%"
   sodipodi:docname="label_featured.svg">
  <metadata
     id="metadata12">
    <rdf:RDF>
      <cc:Work
         rdf:about="">
        <dc:format>image/svg+xml</dc:format>
        <dc:type
           rdf:resource="http://purl.org/dc/dcmitype/StillImage" />
      </cc:Work>
    </rdf:RDF>
  </metadata>
  <defs
     id="defs10" />
  <sodipodi:namedview
     pagecolor="#ffffff"
     bordercolor="#666666"
     borderopacity="1"
     objecttolerance="10"
     gridtolerance="10"
     guidetolerance="10"
     inkscape:pageopacity="0"
     inkscape:pageshadow="2"
     inkscape:window-width="1280"
     inkscape:window-height="747"
     id="namedview8"
     showgrid="false"
     inkscape:zoom="2.0841578"
     inkscape:cx="75.810001"
     inkscape:cy="16.095"
     inkscape:window-x="-8"
     inkscape:window-y="-8"
     inkscape:window-maximized="1"
     inkscape:current-layer="svg2" />
  <g
     transform="matrix(1.5107051,0,0,1.5107051,-424.16212,-479.13628)"
     id="g4">
    <path
       d="m 452.03,328 -4.969,7.875 -3,-6.813 -5.25,11.09 c -0.104,0.189 -0.178,0.341 -0.25,0.469 -0.072,0.128 -0.132,0.249 -0.188,0.344 -0.055,0.095 -0.106,0.201 -0.156,0.281 -0.05,0.08 -0.127,0.157 -0.188,0.25 -0.099,0.148 -0.15,0.265 -0.188,0.344 -0.038,0.078 -0.069,0.156 -0.094,0.25 -0.034,0.117 -0.018,0.203 0.031,0.281 0.049,0.078 0.105,0.129 0.219,0.125 0.138,-0.007 0.29,-0.051 0.406,-0.156 0.116,-0.106 0.206,-0.286 0.313,-0.531 0.049,-0.097 0.111,-0.205 0.156,-0.313 0.045,-0.107 0.096,-0.243 0.156,-0.375 0.06,-0.132 0.135,-0.266 0.219,-0.438 0.084,-0.172 0.178,-0.393 0.313,-0.625 l 1.813,-3.938 2.813,5.719 4.469,-7.344 1.344,6.281 4.906,-0.656 L 452.03,328 m -14.25,2.406 c -0.067,0.009 -0.142,0.018 -0.219,0.031 -0.077,0.013 -0.165,0.041 -0.281,0.063 -0.074,0.015 -0.162,0.02 -0.25,0.031 -0.088,0.012 -0.191,0.015 -0.313,0.031 l -6.875,0.906 -1.719,12.219 7.719,-1.031 c 0.329,-0.043 0.574,-0.121 0.719,-0.219 0.145,-0.098 0.235,-0.178 0.25,-0.281 0.014,-0.103 -0.026,-0.197 -0.094,-0.25 -0.067,-0.053 -0.185,-0.083 -0.344,-0.063 -0.043,0.006 -0.067,0.021 -0.125,0.031 -0.058,10e-4 -0.162,0.05 -0.281,0.094 -0.118,0.033 -0.256,0.058 -0.438,0.094 -0.181,0.035 -0.413,0.062 -0.656,0.094 l -2,0.281 1.063,-7.688 1.875,-0.25 c 0.103,-0.014 0.2,-0.026 0.281,-0.031 0.081,-0.005 0.153,0.003 0.219,0 0.097,-0.013 0.164,-0.027 0.219,-0.031 0.054,-0.004 0.101,-0.024 0.156,-0.031 0.158,-0.021 0.306,-0.053 0.406,-0.125 0.1,-0.072 0.139,-0.161 0.156,-0.281 0.015,-0.109 -0.008,-0.202 -0.094,-0.25 -0.086,-0.048 -0.21,-0.049 -0.344,-0.031 -0.085,0.011 -0.154,0.017 -0.219,0.031 -0.065,0.014 -0.127,0.013 -0.219,0.031 -0.074,0.015 -0.171,0.045 -0.281,0.063 -0.11,0.017 -0.254,0.042 -0.406,0.063 l -1.656,0.219 0.375,-2.625 2,-0.281 c 0.244,-0.032 0.479,-0.053 0.656,-0.063 0.178,-0.009 0.325,-0.008 0.438,0 0.112,0.008 0.193,0.002 0.25,0 0.057,-0.002 0.114,0.006 0.156,0 0.158,-0.021 0.256,-0.094 0.344,-0.188 0.088,-0.093 0.143,-0.184 0.156,-0.281 0.016,-0.115 -0.019,-0.196 -0.125,-0.25 -0.106,-0.054 -0.275,-0.061 -0.5,-0.031 m -22.13,1.031 -5.406,0.719 -2,14.156 5.406,-0.719 2,-14.156 m 11.938,0.219 c -0.036,0.005 -0.064,0.02 -0.125,0.031 -0.061,0.011 -0.162,0.055 -0.281,0.094 -0.112,0.032 -0.256,0.056 -0.438,0.094 -0.182,0.038 -0.413,0.062 -0.656,0.094 l -8.125,1.094 c -0.177,0.023 -0.347,0.058 -0.469,0.094 -0.122,0.036 -0.209,0.079 -0.281,0.125 -0.072,0.046 -0.122,0.072 -0.156,0.125 -0.034,0.053 -0.054,0.13 -0.063,0.188 -0.014,0.098 -10e-5,0.162 0.063,0.219 0.064,0.056 0.179,0.084 0.344,0.063 0.036,-0.005 0.095,-0.017 0.156,-0.031 0.062,-0.014 0.156,-0.055 0.281,-0.094 0.107,-0.037 0.253,-0.055 0.438,-0.094 0.185,-0.038 0.394,-0.094 0.625,-0.125 l 1.375,-0.188 -1.625,11.594 4.656,-0.625 1.625,-11.563 2.125,-0.281 c 0.177,-0.023 0.322,-0.059 0.438,-0.094 0.115,-0.035 0.209,-0.082 0.281,-0.125 0.072,-0.043 0.122,-0.072 0.156,-0.125 0.034,-0.053 0.054,-0.13 0.063,-0.188 0.014,-0.098 0.002,-0.165 -0.063,-0.219 -0.064,-0.053 -0.185,-0.083 -0.344,-0.063 m -30.25,4.281 c -0.355,-0.004 -0.782,0.026 -1.25,0.063 -0.468,0.037 -1.017,0.072 -1.656,0.156 l -3.813,0.5 -1.688,12.219 3.063,-0.406 c 0.694,-0.092 1.323,-0.187 1.844,-0.281 0.521,-0.094 0.965,-0.202 1.375,-0.313 0.41,-0.111 0.789,-0.235 1.125,-0.375 0.336,-0.14 0.67,-0.321 1,-0.5 0.609,-0.34 1.182,-0.726 1.688,-1.156 0.506,-0.431 0.931,-0.899 1.313,-1.406 0.382,-0.507 0.693,-1.02 0.938,-1.594 0.245,-0.574 0.411,-1.18 0.5,-1.813 0.082,-0.586 0.108,-1.136 0.031,-1.656 -0.077,-0.52 -0.241,-1.016 -0.469,-1.438 -0.228,-0.421 -0.527,-0.76 -0.906,-1.063 -0.379,-0.302 -0.821,-0.537 -1.344,-0.688 -0.259,-0.073 -0.535,-0.142 -0.813,-0.188 -0.278,-0.045 -0.583,-0.059 -0.938,-0.063 m -1.062,0.656 c 0.332,-0.02 0.637,-0.007 0.906,0 0.539,0.013 0.996,0.08 1.375,0.188 0.472,0.129 0.878,0.32 1.219,0.594 0.341,0.274 0.638,0.616 0.844,1 0.206,0.384 0.338,0.808 0.406,1.281 0.068,0.473 0.073,0.977 0,1.5 -0.081,0.58 -0.246,1.105 -0.469,1.625 -0.222,0.52 -0.512,1.022 -0.844,1.469 -0.332,0.447 -0.7,0.852 -1.125,1.219 -0.425,0.366 -0.863,0.694 -1.344,0.969 -0.481,0.275 -0.979,0.477 -1.5,0.656 -0.521,0.179 -1.064,0.305 -1.594,0.375 l -0.188,0.031 c -0.082,0.011 -0.185,0.024 -0.281,0.031 l 1.531,-10.813 c 0.395,-0.047 0.73,-0.105 1.063,-0.125 m -8.469,0.438 c -0.083,-0.006 -0.2,0.016 -0.313,0.031 -0.067,0.009 -0.142,0.018 -0.219,0.031 -0.077,0.013 -0.165,0.041 -0.281,0.063 -0.074,0.015 -0.162,0.02 -0.25,0.031 -0.088,0.012 -0.191,0.015 -0.313,0.031 l -6.875,0.906 -1.719,12.219 7.75,-1.031 c 0.329,-0.043 0.542,-0.121 0.688,-0.219 0.145,-0.098 0.235,-0.209 0.25,-0.313 0.014,-0.103 0.005,-0.166 -0.063,-0.219 -0.067,-0.053 -0.185,-0.083 -0.344,-0.063 -0.043,0.006 -0.098,0.021 -0.156,0.031 -0.058,10e-4 -0.162,0.05 -0.281,0.094 -0.118,0.033 -0.256,0.058 -0.438,0.094 -0.181,0.035 -0.381,0.062 -0.625,0.094 l -2.031,0.281 1.094,-7.688 1.844,-0.25 c 0.103,-0.014 0.2,-0.026 0.281,-0.031 0.081,-0.005 0.153,0.003 0.219,0 0.097,-0.013 0.164,-0.027 0.219,-0.031 0.054,-0.004 0.133,-0.024 0.188,-0.031 0.158,-0.021 0.275,-0.053 0.375,-0.125 0.1,-0.072 0.171,-0.192 0.188,-0.313 0.015,-0.109 -0.039,-0.171 -0.125,-0.219 -0.086,-0.048 -0.179,-0.08 -0.313,-0.063 -0.085,0.011 -0.154,0.048 -0.219,0.063 -0.065,0.014 -0.158,0.013 -0.25,0.031 -0.074,0.015 -0.171,0.045 -0.281,0.063 -0.11,0.017 -0.223,0.042 -0.375,0.063 l -1.688,0.219 0.375,-2.656 2.031,-0.25 c 0.244,-0.032 0.447,-0.053 0.625,-0.063 0.178,-0.009 0.325,-0.008 0.438,0 0.112,0.008 0.193,0.002 0.25,0 0.057,-0.002 0.114,0.006 0.156,0 0.158,-0.021 0.287,-0.094 0.375,-0.188 0.088,-0.093 0.143,-0.184 0.156,-0.281 0.016,-0.115 -0.05,-0.196 -0.156,-0.25 -0.053,-0.027 -0.105,-0.057 -0.188,-0.063 m -15.313,2.094 c -0.178,0.009 -0.385,0.043 -0.594,0.063 -0.209,0.019 -0.42,0.033 -0.688,0.063 -0.267,0.03 -0.594,0.079 -0.938,0.125 -0.344,0.046 -0.743,0.098 -1.188,0.156 l -3.063,0.406 -1.719,12.188 4.656,-0.625 1.625,-11.563 c 0.098,-0.019 0.188,-0.046 0.313,-0.063 0.125,-0.017 0.273,-0.009 0.438,-0.031 0.42,-0.056 0.822,-0.106 1.156,-0.125 0.334,-0.019 0.611,-1e-4 0.875,0.031 0.476,0.055 0.906,0.156 1.281,0.313 0.375,0.156 0.693,0.367 0.938,0.625 0.245,0.258 0.43,0.573 0.531,0.938 0.101,0.364 0.098,0.773 0.031,1.25 -0.074,0.529 -0.236,1.022 -0.5,1.5 -0.264,0.478 -0.604,0.905 -1,1.281 -0.396,0.377 -0.849,0.689 -1.344,0.938 -0.495,0.249 -1,0.43 -1.531,0.5 -0.061,0.008 -0.108,-0.004 -0.156,0 -0.048,0.004 -0.108,-10e-5 -0.156,0 -0.065,-0.003 -0.121,-0.003 -0.188,0 -0.066,0.003 -0.127,0.019 -0.219,0.031 -0.213,0.028 -0.384,0.073 -0.5,0.156 -0.116,0.083 -0.203,0.203 -0.219,0.313 -0.013,0.092 0.018,0.175 0.094,0.25 0.076,0.075 0.256,0.095 0.5,0.063 0.036,-0.005 0.057,-0.024 0.094,-0.031 0.037,-0.008 0.089,-0.026 0.125,-0.031 0.031,-0.001 0.06,0.007 0.094,0 0.034,-0.007 0.063,-0.027 0.094,-0.031 0.097,-0.013 0.157,-0.019 0.188,0 0.03,0.019 0.065,0.096 0.094,0.188 0.021,0.065 0.036,0.129 0.063,0.219 0.026,0.09 0.079,0.203 0.125,0.344 0.172,0.564 0.38,1.032 0.625,1.375 0.245,0.343 0.513,0.565 0.844,0.719 0.216,0.118 0.467,0.216 0.719,0.25 0.252,0.034 0.506,0.032 0.75,0 0.365,-0.048 0.637,-0.141 0.844,-0.25 0.206,-0.109 0.324,-0.237 0.344,-0.375 0.031,-0.218 -0.056,-0.311 -0.281,-0.281 -0.049,0.006 -0.106,0.045 -0.156,0.063 -0.05,0.018 -0.111,0.03 -0.188,0.063 -0.071,0.038 -0.146,0.067 -0.219,0.094 -0.072,0.026 -0.133,0.055 -0.188,0.063 -0.268,0.035 -0.53,0 -0.781,-0.063 -0.251,-0.063 -0.499,-0.173 -0.719,-0.375 -0.22,-0.202 -0.416,-0.504 -0.594,-0.875 -0.178,-0.371 -0.315,-0.83 -0.438,-1.406 0.62,-0.2 1.168,-0.476 1.688,-0.813 0.519,-0.337 0.987,-0.73 1.375,-1.156 0.388,-0.426 0.693,-0.886 0.938,-1.375 0.245,-0.489 0.428,-0.989 0.5,-1.5 0.075,-0.534 0.04,-1.01 -0.094,-1.438 -0.134,-0.431 -0.356,-0.815 -0.656,-1.125 -0.3,-0.31 -0.678,-0.541 -1.125,-0.719 -0.447,-0.178 -0.948,-0.284 -1.5,-0.313 -0.173,-0.005 -0.339,1e-4 -0.5,0 -0.161,-10e-5 -0.322,-0.009 -0.5,0 m -9.844,1.156 c -0.14,0.019 -0.254,0.068 -0.344,0.156 -0.09,0.088 -0.136,0.2 -0.156,0.344 -0.012,0.086 -0.036,0.244 -0.031,0.469 -0.005,0.08 0.009,0.176 0,0.281 -0.009,0.106 -0.014,0.223 -0.031,0.344 l -0.656,4.656 c -0.145,0.995 -0.423,1.884 -0.781,2.625 -0.358,0.741 -0.78,1.366 -1.281,1.875 -0.502,0.509 -1.045,0.898 -1.656,1.188 -0.611,0.29 -1.255,0.476 -1.906,0.563 -0.073,10e-4 -0.172,0.02 -0.281,0.031 -0.109,0.012 -0.217,0.023 -0.344,0.031 -0.127,0.008 -0.243,0.025 -0.375,0.031 -0.132,0.006 -0.281,0 -0.406,0 l 1.625,-11.625 -4.656,0.625 -0.938,6.781 c -0.106,0.753 -0.086,1.451 0.063,2.094 0.149,0.643 0.431,1.181 0.844,1.625 0.413,0.444 0.968,0.767 1.656,0.969 0.689,0.202 1.52,0.223 2.5,0.094 0.895,-0.118 1.719,-0.369 2.469,-0.75 0.75,-0.381 1.398,-0.86 1.969,-1.438 0.571,-0.577 1.039,-1.227 1.406,-1.969 0.367,-0.742 0.601,-1.536 0.719,-2.375 l 0.719,-5.156 c 0.031,-0.218 0.076,-0.435 0.125,-0.656 0.017,-0.081 0.048,-0.155 0.063,-0.219 0.015,-0.064 0.022,-0.119 0.031,-0.188 0.017,-0.121 -0.012,-0.229 -0.063,-0.313 -0.051,-0.084 -0.141,-0.112 -0.281,-0.094 m -13.375,1.75 c -0.036,0.005 -0.095,0.02 -0.156,0.031 -0.061,0.011 -0.162,0.024 -0.281,0.063 -0.112,0.032 -0.256,0.056 -0.438,0.094 -0.182,0.038 -0.381,0.093 -0.625,0.125 l -8.156,1.063 c -0.177,0.023 -0.316,0.058 -0.438,0.094 -0.122,0.036 -0.209,0.079 -0.281,0.125 -0.072,0.046 -0.122,0.104 -0.156,0.156 -0.034,0.053 -0.054,0.099 -0.063,0.156 -0.014,0.098 -10e-5,0.194 0.063,0.25 0.064,0.056 0.179,0.053 0.344,0.031 0.036,-0.005 0.095,-0.017 0.156,-0.031 0.062,-0.014 0.156,-0.023 0.281,-0.063 0.107,-0.037 0.253,-0.087 0.438,-0.125 0.185,-0.038 0.394,-0.063 0.625,-0.094 l 1.344,-0.188 -1.625,11.563 4.688,-0.594 1.625,-11.594 2.125,-0.281 c 0.177,-0.023 0.322,-0.059 0.438,-0.094 0.115,-0.035 0.209,-0.05 0.281,-0.094 0.072,-0.043 0.122,-0.104 0.156,-0.156 0.034,-0.053 0.054,-0.099 0.063,-0.156 0.014,-0.098 -0.03,-0.165 -0.094,-0.219 -0.064,-0.053 -0.154,-0.083 -0.313,-0.063 m -17.13,1.844 -6.03,11.03 h -0.063 c -0.148,-0.009 -0.279,-0.004 -0.375,0 -0.096,0.004 -0.157,-0.004 -0.188,0 -0.128,0.017 -0.25,0.085 -0.344,0.156 -0.094,0.072 -0.14,0.135 -0.156,0.25 -0.014,0.098 0.025,0.189 0.094,0.25 0.069,0.061 0.144,0.089 0.281,0.094 0.047,0.005 0.102,0.002 0.156,0 0.054,-0.002 0.121,0.003 0.188,0 -0.12,0.213 -0.221,0.387 -0.313,0.531 -0.092,0.145 -0.176,0.275 -0.25,0.375 -0.101,0.12 -0.193,0.226 -0.25,0.313 -0.057,0.087 -0.086,0.161 -0.094,0.219 -0.014,0.098 0.03,0.191 0.094,0.25 0.063,0.059 0.134,0.078 0.25,0.063 0.14,-0.019 0.275,-0.09 0.375,-0.188 0.1,-0.098 0.211,-0.266 0.344,-0.531 0.059,-0.121 0.151,-0.295 0.25,-0.469 0.099,-0.174 0.207,-0.376 0.344,-0.625 0.272,-0.025 0.573,-0.048 0.938,-0.094 0.365,-0.046 0.826,-0.119 1.344,-0.188 l 2.563,-0.344 0.531,1.438 4.75,-0.625 -4.438,-11.906 m -16.906,0.844 c -0.095,-0.007 -0.185,0.014 -0.313,0.031 -0.064,0.008 -0.128,0.023 -0.188,0.031 -0.06,0.008 -0.14,0.014 -0.219,0.031 -0.107,0.021 -0.237,0.041 -0.375,0.063 -0.138,0.022 -0.285,0.038 -0.469,0.063 l -8.406,1.125 -2,14.12 5.406,-0.719 1.281,-9.09 2.375,-0.313 c 0.12,-0.016 0.245,-0.022 0.344,-0.031 0.098,-0.001 0.173,-0.028 0.25,-0.031 0.106,-0.014 0.187,-0.026 0.25,-0.031 0.063,-0.005 0.131,0.007 0.188,0 0.184,-0.024 0.316,-0.078 0.438,-0.156 0.122,-0.078 0.199,-0.204 0.219,-0.344 0.019,-0.133 -0.018,-0.23 -0.125,-0.281 -0.107,-0.051 -0.227,-0.051 -0.375,-0.031 -0.099,0.013 -0.203,0.014 -0.281,0.031 -0.079,0.017 -0.15,0.043 -0.25,0.063 -0.1,0.02 -0.227,0.044 -0.344,0.063 -0.117,0.019 -0.278,0.037 -0.469,0.063 l -2.125,0.281 0.531,-3.594 2.781,-0.375 c 0.268,-0.036 0.482,-0.052 0.688,-0.063 0.206,-0.011 0.377,-10e-4 0.5,0 0.13,0.009 0.243,0.003 0.313,0 0.07,-0.003 0.114,0.006 0.156,0 0.184,-0.024 0.329,-0.11 0.438,-0.219 0.109,-0.109 0.172,-0.199 0.188,-0.313 0.019,-0.133 -0.03,-0.251 -0.156,-0.313 -0.063,-0.031 -0.155,-0.055 -0.25,-0.063 m 9.563,0.625 c -0.067,0.009 -0.111,0.018 -0.188,0.031 -0.077,0.013 -0.196,0.041 -0.313,0.063 -0.074,0.015 -0.162,0.02 -0.25,0.031 -0.088,0.012 -0.191,0.046 -0.313,0.063 l -6.875,0.906 -1.719,12.188 7.75,-1.031 c 0.329,-0.043 0.574,-0.121 0.719,-0.219 0.145,-0.098 0.204,-0.178 0.219,-0.281 0.014,-0.103 0.005,-0.197 -0.063,-0.25 -0.067,-0.053 -0.185,-0.052 -0.344,-0.031 -0.043,0.006 -0.098,-10e-4 -0.156,0 -0.058,10e-4 -0.13,0.05 -0.25,0.094 -0.118,0.033 -0.288,0.058 -0.469,0.094 -0.181,0.035 -0.381,0.093 -0.625,0.125 l -2.031,0.25 1.094,-7.688 1.844,-0.25 c 0.103,-0.014 0.2,-0.026 0.281,-0.031 0.081,-0.005 0.153,0.003 0.219,0 0.097,-0.013 0.196,-0.027 0.25,-0.031 0.054,-0.004 0.101,0.007 0.156,0 0.158,-0.021 0.275,-0.084 0.375,-0.156 0.1,-0.072 0.171,-0.161 0.188,-0.281 0.015,-0.109 -0.039,-0.202 -0.125,-0.25 -0.086,-0.048 -0.179,-0.049 -0.313,-0.031 -0.085,0.011 -0.154,0.017 -0.219,0.031 -0.065,0.014 -0.158,0.045 -0.25,0.063 -0.074,0.015 -0.171,0.014 -0.281,0.031 -0.11,0.017 -0.223,0.042 -0.375,0.063 l -1.656,0.219 0.344,-2.625 2.031,-0.281 c 0.244,-0.032 0.447,-0.053 0.625,-0.063 0.178,-0.009 0.325,-0.008 0.438,0 0.112,0.008 0.193,0.002 0.25,0 0.057,-0.002 0.114,0.006 0.156,0 0.158,-0.021 0.287,-0.063 0.375,-0.156 0.088,-0.093 0.143,-0.215 0.156,-0.313 0.016,-0.115 -0.05,-0.196 -0.156,-0.25 -0.106,-0.054 -0.275,-0.061 -0.5,-0.031 m 4.656,4.719 1.625,4.344 -2.688,0.344 c -0.177,0.023 -0.4,0.036 -0.688,0.063 -0.288,0.027 -0.586,0.047 -0.875,0.063 l 2.625,-4.813"
       id="path6"
       inkscape:connector-curvature="0"
       style="fill:#fed38f" />
  </g>
</svg>
