<svg xmlns="http://www.w3.org/2000/svg" viewBox="0 0 184 62"><path d="m161.59 1004.24c-.217.011-.464.039-.719.062-.255.023-.549.058-.875.094-.326.036-.705.069-1.125.125-.42.056-.894.116-1.438.188l-3.781.5-2.063 14.906 5.688-.75 1.969-14.12c.12-.023.254-.042.406-.062.153-.02.33-.036.531-.062.513-.068.966-.133 1.375-.156.409-.023.802-.001 1.125.031.582.068 1.104.184 1.563.375.459.191.826.466 1.125.781.299.315.501.68.625 1.125.124.446.144.98.063 1.563-.091.646-.302 1.26-.625 1.844-.323.584-.703 1.102-1.188 1.563-.484.46-1.051.821-1.656 1.125-.605.304-1.228.508-1.875.594-.074.001-.128.027-.188.031-.059 0-.129-.0001-.188 0-.08 0-.169 0-.25 0-.081 0-.17.016-.281.031-.26.034-.452.117-.594.219-.142.101-.231.21-.25.344-.016.112.032.221.125.313.093.091.296.102.594.062.045-.001.08-.022.125-.031.045-.001.08.001.125 0 .038-.012.084-.022.125-.031.041-.001.088-.026.125-.031.119-.016.182-.023.219 0 .037.023.09.106.125.219.025.079.062.172.094.281.032.11.069.235.125.406.21.689.451 1.237.75 1.656.299.419.658.75 1.063.938.265.144.567.239.875.281.308.042.609.039.906 0 .446-.059.779-.179 1.031-.313.252-.133.383-.269.406-.438.037-.267-.069-.38-.344-.344-.06.001-.126.001-.188.031-.061.022-.126.054-.219.094-.087.046-.193.093-.281.125-.089.032-.152.054-.219.062-.327.043-.662.014-.969-.062-.307-.077-.575-.222-.844-.469-.268-.247-.532-.609-.75-1.063-.218-.454-.382-1.015-.531-1.719.757-.245 1.459-.589 2.094-1 .635-.411 1.182-.885 1.656-1.406.475-.521.857-1.058 1.156-1.656.299-.598.506-1.219.594-1.844.091-.653.038-1.255-.125-1.781-.164-.526-.414-.965-.781-1.344-.367-.379-.829-.689-1.375-.906-.547-.217-1.169-.34-1.844-.375-.211-.001-.397 0-.594 0-.197 0-.408-.012-.625 0m-18.25 2.187c-.276.014-.554.055-.844.094-1.183.157-2.322.492-3.375 1-1.054.508-1.986 1.142-2.813 1.906-.826.764-1.522 1.63-2.063 2.594-.54.964-.881 1.988-1.031 3.063-.169 1.208-.081 2.248.219 3.156.3.908.765 1.67 1.406 2.25.642.58 1.412.956 2.344 1.188.932.232 1.937.301 3.03.156.774-.102 1.554-.301 2.281-.563.727-.261 1.385-.577 2.031-.969.647-.392 1.262-.858 1.813-1.375.551-.518 1.043-1.073 1.469-1.688.426-.615.778-1.266 1.063-1.969.285-.703.487-1.46.594-2.219.159-1.138.083-2.147-.188-3.03-.27-.884-.692-1.615-1.313-2.188-.621-.573-1.413-.952-2.344-1.188-.698-.176-1.454-.261-2.281-.219m-.188.781c.749-.035 1.412.045 2.031.219.826.232 1.516.594 2.063 1.125.546.531.924 1.211 1.156 2 .233.789.292 1.656.156 2.625-.148 1.053-.466 2.034-.969 2.938-.503.904-1.136 1.719-1.875 2.406-.739.687-1.557 1.25-2.469 1.688-.912.438-1.853.717-2.813.844-.156.021-.336.016-.531.031-.196.016-.383.038-.594.031l1.906-13.594c.228-.065.426-.12.625-.156.199-.037.382-.074.531-.094.264-.035.532-.051.781-.062m-11.06.719c-.045.001-.113.018-.188.031-.075.013-.167.047-.313.094-.137.039-.341.078-.563.125-.222.047-.484.086-.781.125l-9.938 1.344c-.216.029-.414.05-.563.094-.149.044-.255.1-.344.156-.088.056-.146.123-.188.188-.042.064-.084.117-.094.188-.017.119.016.212.094.281.078.069.237.089.438.062.045-.001.081-.014.156-.031.075-.017.191-.046.344-.094.13-.045.306-.078.531-.125.226-.047.498-.088.781-.125l1.656-.25-1.969 14.156 5.719-.75 1.969-14.156 2.594-.344c.216-.029.39-.051.531-.094.141-.043.256-.103.344-.156.088-.053.146-.092.188-.156.042-.064.084-.149.094-.219.017-.119-.015-.216-.094-.281-.078-.065-.213-.088-.406-.062m-18.06 2.438c-.418-.014-.818.037-1.25.094-.885.117-1.7.325-2.406.625-.707.3-1.305.644-1.813 1.063-.508.419-.917.898-1.219 1.406-.301.509-.487 1.022-.563 1.563-.062.442-.063.865 0 1.25.063.385.187.761.406 1.125.219.364.543.729.938 1.094.394.365.892.723 1.5 1.125.555.368 1.042.694 1.438.969.396.275.702.541.969.75.266.209.503.376.656.531.153.155.24.306.313.438.073.132.144.256.156.375.013.119-.013.249-.031.375-.031.225-.129.422-.281.625-.153.203-.34.395-.594.563-.254.168-.557.315-.906.438-.349.122-.732.194-1.156.25-.417.055-.833.101-1.219.094-.386-.001-.752-.06-1.094-.125-.341-.065-.655-.164-.938-.281-.283-.118-.515-.247-.719-.406-.137-.12-.23-.185-.313-.219-.083-.034-.186-.048-.313-.031-.149.02-.286.065-.375.156-.089.091-.14.193-.156.313-.032.232.051.433.219.563.168.129.353.238.594.344.508.229 1.118.395 1.813.469.694.074 1.446.044 2.25-.062.885-.117 1.693-.333 2.469-.656.776-.323 1.493-.74 2.094-1.219.6-.479 1.088-1.02 1.469-1.625.381-.605.622-1.249.719-1.938.058-.414.041-.8 0-1.188-.041-.388-.177-.819-.438-1.25-.261-.431-.674-.893-1.219-1.406-.545-.514-1.275-1.114-2.219-1.781-.478-.343-.848-.608-1.125-.844-.277-.236-.492-.453-.625-.625-.133-.172-.224-.31-.25-.438-.026-.128-.018-.28 0-.406.042-.302.192-.555.469-.781.276-.226.658-.371 1.156-.438.372-.049.731-.07 1.063-.062.331.001.629.041.906.094.277.053.539.133.75.219.211.086.37.168.5.281.113.082.209.159.281.188.073.028.146.014.25 0 .126-.017.254-.065.344-.156.089-.091.139-.193.156-.313.028-.197-.086-.375-.313-.531-.226-.156-.609-.293-1.188-.438-.34-.072-.738-.143-1.156-.156zm-9.906 1.406l-5.688.75-2.094 14.906 5.688-.75 2.094-14.906m-13.25 1.594c-.212.011-.44.034-.656.062-.885.117-1.668.325-2.375.625-.707.3-1.336.675-1.844 1.094-.508.419-.917.866-1.219 1.375-.301.509-.487 1.022-.563 1.563-.062.442-.063.865 0 1.25.063.385.218.761.438 1.125.219.364.512.729.906 1.094.394.365.923.754 1.531 1.156.555.368 1.01.694 1.406.969.396.275.734.509 1 .719.266.209.472.376.625.531.153.155.271.306.344.438.073.132.112.256.125.375.013.119.018.249 0 .375-.032.225-.129.453-.281.656-.153.203-.371.363-.625.531-.254.168-.526.315-.875.438-.349.122-.763.225-1.188.281-.417.055-.802.07-1.188.062-.386-.001-.752-.029-1.094-.094-.341-.065-.655-.164-.938-.281-.283-.118-.515-.247-.719-.406-.137-.12-.261-.216-.344-.25-.083-.034-.186-.048-.313-.031-.149.02-.254.096-.344.188-.089.091-.14.193-.156.313-.032.232.019.402.188.531.168.129.384.238.625.344.508.229 1.087.395 1.781.469.694.073 1.446.044 2.25-.062.885-.117 1.724-.333 2.5-.656.776-.323 1.462-.708 2.063-1.188.6-.479 1.088-1.02 1.469-1.625.381-.605.622-1.249.719-1.938.058-.414.072-.831.031-1.219-.041-.388-.208-.788-.469-1.219-.261-.431-.642-.893-1.188-1.406-.545-.514-1.307-1.114-2.25-1.781-.478-.343-.848-.639-1.125-.875-.277-.236-.492-.453-.625-.625-.133-.172-.193-.31-.219-.438-.026-.128-.049-.249-.031-.375.042-.302.224-.555.5-.781.276-.226.658-.371 1.156-.438.372-.049.731-.07 1.063-.062.331.001.629.001.906.062.277.053.508.133.719.219.211.086.401.199.531.313.113.082.177.128.25.156.073.028.177.045.281.031.126-.017.223-.065.313-.156.089-.091.139-.224.156-.344.028-.197-.055-.375-.281-.531-.226-.156-.64-.293-1.219-.438-.34-.072-.707-.111-1.125-.125-.209-.001-.413-.011-.625 0m-10.03 1.376c-.134.018-.27.091-.375.188-.105.097-.162.224-.188.406-.016.112-.029.212-.031.281-.002.069.004.15 0 .281-.0001.11-.018.267-.031.438-.013.171-.051.417-.094.719l-.875 6.25-10.844-7.469-1.844 13.12c-.053.379-.112.673-.156.938-.044.264-.086.471-.125.594-.031.114-.062.215-.094.313-.032.097-.052.204-.063.281-.02.14.001.234.094.313.084.079.226.113.375.094.141-.019.257-.075.375-.188.118-.112.193-.286.219-.469.008-.056.021-.121.031-.219.001-.098.019-.204.031-.344.012-.139.039-.3.063-.469l.063-.531.875-6.375 10.875 7.375 1.875-13.188c.049-.351.092-.629.125-.813.033-.183.037-.341.063-.469.021-.099.051-.201.063-.281.011-.081.014-.186.031-.313.028-.197.001-.306-.094-.375-.104-.069-.217-.11-.344-.094m-47.16 2.188c-.057.001-.123.014-.219.031-.095.017-.253.065-.438.125-.174.049-.405.097-.688.156-.283.059-.59.106-.969.156l-12.688 1.688c-.275.036-.498.101-.688.156-.189.056-.356.116-.469.188-.112.072-.165.137-.219.219-.053.082-.112.161-.125.25-.021.152.026.287.125.375.099.088.276.096.531.062.057-.001.123-.001.219-.031.096-.022.243-.064.438-.125.166-.057.4-.128.688-.188.287-.06.609-.109.969-.156l2.125-.281-2.5 18 7.25-.938 2.531-18.03 3.313-.438c.275-.036.477-.071.656-.125.18-.054.326-.12.438-.188.112-.067.197-.137.25-.219.053-.082.081-.161.094-.25.021-.152.006-.26-.094-.344-.1-.083-.285-.126-.531-.094m24.469.282l-7.375 13.5-.063-.031c-.181-.011-.351-.001-.469 0-.118.001-.182.026-.219.031-.156.021-.292.069-.406.156-.115.087-.199.203-.219.344-.017.119.041.206.125.281.084.075.208.12.375.125.058.001.122 0 .188 0 .066 0 .138 0 .219 0-.146.261-.294.479-.406.656-.112.177-.191.315-.281.438-.123.147-.243.269-.313.375-.07.106-.084.211-.094.281-.017.119-.015.209.063.281.077.072.202.112.344.094.171-.023.315-.099.438-.219.123-.12.275-.363.438-.688.072-.147.16-.319.281-.531.121-.213.271-.477.438-.781.333-.03.71-.069 1.156-.125.446-.055.993-.104 1.625-.188l3.125-.438.656 1.75 5.813-.75-5.438-14.563m-13.938 2.562c-.217.011-.464.039-.719.062-.255.024-.549.058-.875.094-.326.036-.705.069-1.125.125-.42.056-.894.116-1.438.188l-3.781.5-2.063 14.906 5.688-.75 1.969-14.12c.12-.023.254-.042.406-.062.153-.02.33-.036.531-.062.513-.068.966-.133 1.375-.156.409-.023.802-.001 1.125.031.582.068 1.072.184 1.531.375.459.191.857.466 1.156.781.299.315.501.68.625 1.125.124.445.144.98.063 1.563-.091.646-.302 1.26-.625 1.844-.323.584-.703 1.102-1.188 1.563-.484.46-1.051.821-1.656 1.125-.605.304-1.228.508-1.875.594-.074.001-.128.027-.188.031-.059 0-.129-.0001-.188 0-.08 0-.169 0-.25 0-.081 0-.17.017-.281.031-.26.034-.452.086-.594.188-.142.101-.231.242-.25.375-.016.112.032.221.125.313.093.091.296.102.594.062.045-.001.08-.022.125-.031.045-.001.08.001.125 0 .038-.012.084-.022.125-.031.041-.001.088-.026.125-.031.119-.016.182-.023.219 0 .037.023.09.106.125.219.025.079.062.172.094.281.032.11.069.235.125.406.21.689.451 1.237.75 1.656.299.419.658.75 1.063.938.265.144.567.208.875.25.308.042.609.071.906.031.446-.059.779-.179 1.031-.313.252-.133.383-.269.406-.438.037-.267-.068-.38-.344-.344-.06.001-.126.001-.188.031-.062.022-.126.054-.219.094-.087.046-.193.093-.281.125-.089.032-.152.054-.219.062-.327.043-.662.014-.969-.062-.307-.076-.575-.222-.844-.469-.268-.247-.532-.609-.75-1.063-.218-.454-.382-1.015-.531-1.719.757-.245 1.459-.589 2.094-1 .635-.411 1.182-.885 1.656-1.406.475-.521.857-1.058 1.156-1.656.299-.598.506-1.219.594-1.844.092-.653.039-1.255-.125-1.781-.164-.526-.414-.965-.781-1.344-.367-.379-.829-.689-1.375-.906-.547-.217-1.169-.34-1.844-.375-.211-.001-.397 0-.594 0-.197 0-.408-.011-.625 0m10.656 4.969l2 5.313-3.281.438c-.216.028-.492.061-.844.094-.351.033-.709.075-1.063.094l3.188-5.938" fill="#fed38f" transform="translate(0-990.36)"/></svg>