<?xml version="1.0" encoding="UTF-8" standalone="no"?>
<svg
   xmlns:dc="http://purl.org/dc/elements/1.1/"
   xmlns:cc="http://creativecommons.org/ns#"
   xmlns:rdf="http://www.w3.org/1999/02/22-rdf-syntax-ns#"
   xmlns:svg="http://www.w3.org/2000/svg"
   xmlns="http://www.w3.org/2000/svg"
   xmlns:sodipodi="http://sodipodi.sourceforge.net/DTD/sodipodi-0.dtd"
   xmlns:inkscape="http://www.inkscape.org/namespaces/inkscape"
   viewBox="0 0 184 62"
   id="svg2"
   version="1.1"
   inkscape:version="0.48.5 r10040"
   width="100%"
   height="100%"
   sodipodi:docname="label_portable.svg">
  <metadata
     id="metadata10">
    <rdf:RDF>
      <cc:Work
         rdf:about="">
        <dc:format>image/svg+xml</dc:format>
        <dc:type
           rdf:resource="http://purl.org/dc/dcmitype/StillImage" />
      </cc:Work>
    </rdf:RDF>
  </metadata>
  <defs
     id="defs8" />
  <sodipodi:namedview
     pagecolor="#ffffff"
     bordercolor="#666666"
     borderopacity="1"
     objecttolerance="10"
     gridtolerance="10"
     guidetolerance="10"
     inkscape:pageopacity="0"
     inkscape:pageshadow="2"
     inkscape:window-width="1280"
     inkscape:window-height="747"
     id="namedview6"
     showgrid="true"
     inkscape:zoom="3.4347826"
     inkscape:cx="92"
     inkscape:cy="31"
     inkscape:window-x="-8"
     inkscape:window-y="-8"
     inkscape:window-maximized="1"
     inkscape:current-layer="svg2">
    <inkscape:grid
       type="xygrid"
       id="grid2987" />
  </sodipodi:namedview>
  <path
     d="m 157.53,14.19 c -0.101,-10e-4 -0.206,0.013 -0.344,0.031 -0.082,0.011 -0.157,0.015 -0.25,0.031 -0.094,0.016 -0.233,0.037 -0.375,0.062 -0.09,0.019 -0.173,0.048 -0.281,0.062 -0.108,0.014 -0.257,0.012 -0.406,0.031 l -8.406,1.125 -2.094,14.906 9.469,-1.25 c 0.402,-0.053 0.697,-0.13 0.875,-0.25 0.177,-0.12 0.264,-0.249 0.281,-0.375 0.018,-0.126 -0.012,-0.216 -0.094,-0.281 -0.082,-0.065 -0.213,-0.088 -0.406,-0.062 -0.052,0.001 -0.116,0.018 -0.188,0.031 -0.071,0.013 -0.197,0.04 -0.344,0.094 -0.144,0.04 -0.31,0.082 -0.531,0.125 -0.221,0.043 -0.484,0.086 -0.781,0.125 l -2.469,0.313 1.313,-9.406 2.281,-0.281 c 0.126,-0.017 0.244,-0.025 0.344,-0.031 0.1,-0.001 0.169,-0.028 0.25,-0.031 0.119,-0.016 0.215,-0.026 0.281,-0.031 0.066,-0.001 0.152,0.001 0.219,0 0.193,-0.026 0.347,-0.099 0.469,-0.188 0.122,-0.089 0.198,-0.196 0.219,-0.344 0.019,-0.133 -0.051,-0.223 -0.156,-0.281 -0.105,-0.058 -0.211,-0.084 -0.375,-0.062 -0.104,0.014 -0.202,0.014 -0.281,0.031 -0.079,0.017 -0.169,0.041 -0.281,0.062 -0.09,0.019 -0.209,0.041 -0.344,0.062 -0.134,0.021 -0.314,0.038 -0.5,0.062 l -2.031,0.281 0.469,-3.219 2.469,-0.313 c 0.298,-0.039 0.533,-0.082 0.75,-0.094 0.217,-0.012 0.394,-10e-4 0.531,0 0.137,10e-4 0.243,0 0.313,0 0.07,0 0.135,10e-4 0.188,0 0.193,-0.026 0.361,-0.105 0.469,-0.219 0.107,-0.114 0.171,-0.224 0.188,-0.344 0.02,-0.14 -0.058,-0.247 -0.188,-0.313 -0.065,-0.033 -0.149,-0.055 -0.25,-0.062 z m -16.469,2.188 -5.688,0.75 -2.094,14.906 9.06,-1.188 c 0.409,-0.054 0.701,-0.162 0.875,-0.281 0.174,-0.12 0.295,-0.217 0.313,-0.344 0.024,-0.168 -0.035,-0.283 -0.125,-0.344 -0.09,-0.061 -0.213,-0.088 -0.406,-0.062 -0.045,10e-4 -0.138,0.02 -0.25,0.062 -0.112,0.042 -0.222,0.109 -0.375,0.156 -0.13,0.045 -0.313,0.069 -0.5,0.125 -0.187,0.056 -0.429,0.118 -0.719,0.156 l -2.063,0.281 1.969,-14.219 m -14.156,2 c -0.248,0 -0.489,0.022 -0.688,0.031 -0.198,0.001 -0.401,0.001 -0.656,0.031 -0.255,0.023 -0.577,0.077 -0.938,0.125 -0.361,0.048 -0.809,0.081 -1.375,0.156 l -4.656,0.625 -2.094,14.906 6.094,-0.813 c 0.268,-0.035 0.549,-0.079 0.844,-0.125 0.295,-0.046 0.579,-0.072 0.875,-0.125 0.296,-0.053 0.588,-0.119 0.875,-0.188 0.287,-0.069 0.552,-0.16 0.813,-0.25 0.757,-0.245 1.451,-0.56 2.063,-0.938 0.612,-0.377 1.151,-0.778 1.594,-1.25 0.442,-0.472 0.788,-0.981 1.063,-1.531 0.274,-0.55 0.449,-1.129 0.531,-1.719 0.086,-0.611 0.063,-1.153 -0.094,-1.625 -0.157,-0.472 -0.416,-0.863 -0.75,-1.188 -0.334,-0.324 -0.739,-0.576 -1.219,-0.75 -0.479,-0.174 -1,-0.29 -1.563,-0.313 0.241,-0.156 0.488,-0.329 0.688,-0.531 0.2,-0.202 0.379,-0.429 0.531,-0.656 0.152,-0.227 0.275,-0.44 0.375,-0.688 0.1,-0.248 0.154,-0.511 0.188,-0.75 0.055,-0.393 0.017,-0.725 -0.094,-1.031 -0.111,-0.306 -0.27,-0.574 -0.5,-0.781 -0.23,-0.207 -0.511,-0.365 -0.844,-0.469 -0.332,-0.104 -0.682,-0.158 -1.063,-0.156 m -0.563,0.782 c 0.154,0 0.284,-0.011 0.406,0 0.361,0.028 0.674,0.105 0.906,0.219 0.232,0.114 0.402,0.269 0.531,0.438 0.13,0.169 0.21,0.354 0.25,0.563 0.04,0.208 0.063,0.432 0.031,0.656 -0.046,0.33 -0.148,0.619 -0.313,0.906 -0.164,0.287 -0.389,0.557 -0.625,0.781 -0.236,0.224 -0.467,0.39 -0.75,0.531 -0.283,0.141 -0.568,0.245 -0.844,0.281 l -0.188,0.031 c -0.056,0.001 -0.139,0 -0.219,0 -0.073,0 -0.125,0 -0.188,0 -0.062,0 -0.119,0 -0.156,0 -0.164,0.022 -0.307,0.053 -0.438,0.125 -0.131,0.072 -0.194,0.199 -0.219,0.375 -0.017,0.119 -0.005,0.236 0.094,0.313 0.099,0.077 0.293,0.094 0.531,0.062 0.067,-0.001 0.123,-0.016 0.188,-0.031 0.064,-0.015 0.126,-0.041 0.188,-0.062 0.061,-0.015 0.12,-0.019 0.188,-0.031 0.067,-0.012 0.152,-0.022 0.219,-0.031 0.774,-0.102 1.45,-0.102 2.031,0 0.581,0.102 1.034,0.274 1.406,0.563 0.372,0.288 0.658,0.663 0.813,1.125 0.154,0.462 0.18,1.01 0.094,1.625 -0.055,0.393 -0.188,0.794 -0.375,1.188 -0.187,0.394 -0.414,0.771 -0.719,1.125 -0.305,0.354 -0.678,0.69 -1.094,1 -0.416,0.31 -0.893,0.586 -1.406,0.812 -0.18,0.086 -0.383,0.166 -0.625,0.25 -0.242,0.084 -0.504,0.144 -0.781,0.219 -0.277,0.074 -0.546,0.155 -0.844,0.219 -0.297,0.063 -0.616,0.118 -0.906,0.156 l -1.219,0.156 1.875,-13.375 c 0.35,-0.046 0.639,-0.065 0.906,-0.094 0.267,-0.028 0.516,-0.05 0.719,-0.062 0.203,-0.013 0.377,-0.028 0.531,-0.031 M 108.556,20 101.212,33.531 101.118,33.5 c -0.181,-0.011 -0.32,-10e-4 -0.438,0 -0.118,10e-4 -0.213,0 -0.25,0 -0.156,0.021 -0.292,0.1 -0.406,0.188 -0.115,0.087 -0.168,0.203 -0.188,0.344 -0.017,0.119 0.009,0.206 0.094,0.281 0.084,0.075 0.208,0.12 0.375,0.125 0.058,10e-4 0.122,0 0.188,0 0.066,0 0.138,0 0.219,0 -0.146,0.261 -0.263,0.479 -0.375,0.656 -0.112,0.177 -0.222,0.315 -0.313,0.438 -0.123,0.147 -0.212,0.269 -0.281,0.375 -0.07,0.106 -0.115,0.211 -0.125,0.281 -0.017,0.119 0.016,0.209 0.094,0.281 0.078,0.072 0.202,0.081 0.344,0.062 0.171,-0.023 0.315,-0.068 0.438,-0.188 0.123,-0.12 0.244,-0.363 0.406,-0.688 0.072,-0.147 0.191,-0.319 0.313,-0.531 0.121,-0.213 0.239,-0.477 0.406,-0.781 0.333,-0.03 0.742,-0.069 1.188,-0.125 0.446,-0.055 0.993,-0.135 1.625,-0.219 l 3.125,-0.406 0.656,1.75 5.813,-0.75 -5.469,-14.594 m -8.03,1.594 c -0.045,0.001 -0.081,0.018 -0.156,0.031 -0.075,0.013 -0.198,0.047 -0.344,0.094 -0.137,0.039 -0.309,0.078 -0.531,0.125 -0.222,0.047 -0.484,0.086 -0.781,0.125 l -9.969,1.313 c -0.216,0.029 -0.383,0.081 -0.531,0.125 -0.149,0.044 -0.287,0.1 -0.375,0.156 -0.088,0.056 -0.146,0.123 -0.188,0.188 -0.042,0.064 -0.053,0.117 -0.063,0.188 -0.017,0.119 0.016,0.212 0.094,0.281 0.078,0.069 0.205,0.089 0.406,0.062 0.045,-10e-4 0.112,-0.014 0.188,-0.031 0.075,-0.017 0.191,-0.046 0.344,-0.094 0.13,-0.045 0.306,-0.109 0.531,-0.156 0.226,-0.047 0.467,-0.088 0.75,-0.125 l 1.688,-0.219 -2,14.156 5.719,-0.75 2,-14.156 2.594,-0.344 c 0.216,-0.029 0.39,-0.051 0.531,-0.094 0.141,-0.043 0.256,-0.103 0.344,-0.156 0.088,-0.053 0.146,-0.123 0.188,-0.188 0.042,-0.064 0.053,-0.117 0.063,-0.188 0.017,-0.119 -0.015,-0.216 -0.094,-0.281 -0.079,-0.065 -0.213,-0.088 -0.406,-0.062 m -19.13,2.813 c -0.197,0 -0.408,0.02 -0.625,0.031 -0.217,0.011 -0.432,10e-4 -0.688,0.031 -0.255,0.024 -0.549,0.058 -0.875,0.094 -0.326,0.036 -0.705,0.101 -1.125,0.156 -0.42,0.056 -0.894,0.116 -1.438,0.188 l -3.781,0.5 -2.094,14.906 5.688,-0.75 2,-14.156 c 0.12,-0.023 0.254,-0.042 0.406,-0.062 0.153,-0.02 0.33,-0.036 0.531,-0.062 0.513,-0.068 0.966,-0.102 1.375,-0.125 0.409,-0.023 0.771,-0.04 1.094,0 0.582,0.068 1.104,0.215 1.563,0.406 0.459,0.191 0.857,0.435 1.156,0.75 0.299,0.315 0.501,0.711 0.625,1.156 0.124,0.446 0.144,0.948 0.063,1.531 -0.091,0.646 -0.302,1.26 -0.625,1.844 -0.323,0.584 -0.734,1.102 -1.219,1.562 -0.484,0.46 -1.02,0.852 -1.625,1.156 -0.605,0.304 -1.228,0.477 -1.875,0.563 -0.074,10e-4 -0.16,0.027 -0.219,0.031 -0.059,0 -0.098,-10e-5 -0.156,0 -0.08,0 -0.169,0 -0.25,0 -0.081,0 -0.17,0.017 -0.281,0.031 -0.26,0.034 -0.452,0.117 -0.594,0.219 -0.142,0.101 -0.231,0.21 -0.25,0.344 -0.016,0.112 0.032,0.221 0.125,0.313 0.093,0.091 0.265,0.102 0.563,0.062 0.045,-10e-4 0.111,10e-4 0.156,0 0.045,-10e-4 0.08,-0.025 0.125,-0.031 0.038,-0.012 0.084,-0.022 0.125,-0.031 0.041,-0.001 0.057,-0.026 0.094,-0.031 0.119,-0.016 0.213,0.001 0.25,0.031 0.037,0.023 0.058,0.075 0.094,0.188 0.025,0.079 0.062,0.172 0.094,0.281 0.032,0.11 0.069,0.266 0.125,0.438 0.21,0.689 0.482,1.237 0.781,1.656 0.299,0.419 0.658,0.718 1.063,0.906 0.265,0.144 0.536,0.239 0.844,0.281 0.308,0.042 0.609,0.039 0.906,0 0.446,-0.059 0.81,-0.148 1.063,-0.281 0.252,-0.133 0.383,-0.3 0.406,-0.469 0.037,-0.267 -0.068,-0.38 -0.344,-0.344 -0.06,10e-4 -0.126,0.041 -0.188,0.062 -0.062,0.022 -0.157,0.054 -0.25,0.094 -0.087,0.046 -0.161,0.061 -0.25,0.094 -0.089,0.032 -0.152,0.054 -0.219,0.062 -0.327,0.043 -0.662,0.045 -0.969,-0.031 -0.307,-0.077 -0.607,-0.253 -0.875,-0.5 -0.268,-0.247 -0.501,-0.578 -0.719,-1.031 -0.218,-0.454 -0.413,-1.046 -0.563,-1.75 0.757,-0.245 1.459,-0.589 2.094,-1 0.635,-0.411 1.213,-0.854 1.688,-1.375 0.475,-0.521 0.857,-1.09 1.156,-1.688 0.299,-0.598 0.475,-1.219 0.563,-1.844 0.092,-0.653 0.07,-1.224 -0.094,-1.75 -0.164,-0.526 -0.446,-0.996 -0.813,-1.375 -0.367,-0.379 -0.797,-0.658 -1.344,-0.875 -0.547,-0.217 -1.169,-0.34 -1.844,-0.375 -0.211,-0.001 -0.428,-0.03 -0.625,-0.031 m -36.5,0.875 c -0.33,0 -0.708,0.025 -1.188,0.062 -0.479,0.037 -1.072,0.071 -1.781,0.156 -0.709,0.085 -1.63,0.2 -2.719,0.344 l -5.438,0.75 -2.656,18.969 7.25,-0.969 2.531,-18 1.188,-0.156 c 0.881,-0.116 1.685,-0.184 2.406,-0.188 0.721,0 1.343,0.074 1.875,0.188 0.641,0.135 1.191,0.326 1.688,0.594 0.497,0.268 0.906,0.612 1.219,1.031 0.313,0.419 0.547,0.918 0.656,1.5 0.109,0.582 0.072,1.268 -0.063,2.031 -0.157,0.924 -0.437,1.79 -0.875,2.594 -0.438,0.804 -0.976,1.504 -1.625,2.125 -0.649,0.621 -1.4,1.129 -2.219,1.531 -0.819,0.402 -1.685,0.661 -2.594,0.781 -0.095,0.013 -0.195,0.02 -0.313,0.031 -0.118,0.011 -0.241,0.026 -0.344,0.031 -0.093,0 -0.182,0.023 -0.281,0.031 -0.099,0.001 -0.199,0.016 -0.313,0.031 -0.256,0.034 -0.459,0.096 -0.625,0.219 -0.166,0.123 -0.259,0.277 -0.281,0.438 -0.03,0.215 0.036,0.352 0.219,0.438 0.183,0.085 0.514,0.091 0.969,0.031 0.36,-0.048 0.832,-0.149 1.469,-0.313 1.102,-0.304 2.118,-0.704 3.03,-1.25 0.913,-0.546 1.727,-1.203 2.406,-1.938 0.679,-0.735 1.215,-1.541 1.656,-2.438 0.442,-0.896 0.767,-1.861 0.938,-2.875 0.128,-0.78 0.103,-1.512 -0.063,-2.188 -0.166,-0.676 -0.461,-1.274 -0.906,-1.781 -0.445,-0.507 -1.015,-0.899 -1.719,-1.219 -0.704,-0.319 -1.551,-0.504 -2.5,-0.563 -0.332,-0.018 -0.67,-0.031 -1,-0.031 z m 18.438,1.313 c -0.523,-0.02 -1.076,0.017 -1.656,0.094 -1.183,0.157 -2.29,0.492 -3.344,1 -1.054,0.508 -1.986,1.142 -2.813,1.906 -0.826,0.764 -1.522,1.63 -2.063,2.594 -0.54,0.964 -0.881,1.988 -1.031,3.063 -0.169,1.208 -0.112,2.248 0.188,3.156 0.3,0.908 0.765,1.67 1.406,2.25 0.642,0.58 1.443,0.987 2.375,1.219 0.932,0.232 1.937,0.27 3.03,0.125 0.774,-0.102 1.523,-0.27 2.25,-0.531 0.727,-0.262 1.416,-0.608 2.063,-1 0.647,-0.392 1.262,-0.858 1.813,-1.375 0.551,-0.517 1.012,-1.073 1.438,-1.688 0.426,-0.615 0.809,-1.266 1.094,-1.969 0.285,-0.703 0.456,-1.429 0.563,-2.188 0.159,-1.138 0.114,-2.147 -0.156,-3.03 -0.27,-0.884 -0.723,-1.615 -1.344,-2.188 -0.621,-0.573 -1.381,-0.984 -2.313,-1.219 -0.466,-0.118 -0.977,-0.198 -1.5,-0.219 m -1,0.781 c 0.749,-0.035 1.443,0.045 2.063,0.219 0.826,0.232 1.516,0.625 2.063,1.156 0.546,0.531 0.924,1.179 1.156,1.969 0.233,0.789 0.292,1.687 0.156,2.656 -0.148,1.053 -0.466,2 -0.969,2.906 -0.503,0.904 -1.136,1.719 -1.875,2.406 -0.739,0.687 -1.557,1.25 -2.469,1.688 -0.912,0.438 -1.853,0.717 -2.813,0.844 -0.156,0.021 -0.336,0.047 -0.531,0.062 -0.196,0.016 -0.414,10e-4 -0.625,0 l 1.906,-13.594 c 0.228,-0.065 0.458,-0.12 0.656,-0.156 0.199,-0.037 0.351,-0.043 0.5,-0.062 0.264,-0.035 0.532,-0.082 0.781,-0.094 m 42.938,0.188 2,5.313 -3.25,0.438 c -0.216,0.028 -0.524,0.061 -0.875,0.094 -0.351,0.033 -0.678,0.043 -1.031,0.062 l 3.156,-5.906"
     id="path4"
     inkscape:connector-curvature="0"
     style="fill:#fed38f" />
</svg>
