<svg xmlns="http://www.w3.org/2000/svg" viewBox="0 0 184 62"><path d="m159.94 1005.71c-.101-.001-.206.013-.344.031-.082.011-.188.015-.281.031-.094.016-.201.037-.344.062-.09.019-.173.048-.281.062-.108.014-.257.012-.406.031l-8.406 1.125-2.094 14.906 9.469-1.25c.402-.053.666-.161.844-.281.177-.12.295-.217.313-.344.018-.126-.012-.247-.094-.313-.082-.065-.213-.057-.406-.031-.052.001-.116-.013-.188 0-.071.013-.197.071-.344.125-.144.04-.31.082-.531.125-.221.043-.484.086-.781.125l-2.469.313 1.313-9.406 2.281-.281c.126-.017.244-.025.344-.031.1-.001.169-.027.25-.031.119-.016.215-.026.281-.031.066-.001.152-.022.219-.031.193-.026.347-.068.469-.156.122-.089.198-.196.219-.344.019-.133-.051-.254-.156-.313-.105-.058-.211-.053-.375-.031-.104.014-.202.014-.281.031-.079.017-.169.041-.281.062-.09.019-.209.041-.344.062-.134.021-.314.038-.5.062l-2.031.281.469-3.219 2.469-.344c.298-.039.533-.051.75-.062.217-.011.394-.001.531 0 .137.001.243 0 .313 0 .07 0 .135.001.188 0 .193-.026.361-.105.469-.219.107-.114.171-.224.188-.344.02-.14-.058-.247-.188-.313-.065-.033-.149-.055-.25-.062zm-46.813 2.031c-.057.001-.123.014-.219.031-.095.017-.253.065-.438.125-.174.049-.405.097-.688.156-.283.059-.59.137-.969.188l-12.688 1.656c-.275.036-.498.101-.688.156-.189.056-.356.116-.469.188-.112.072-.165.137-.219.219-.053.082-.112.161-.125.25-.021.152.026.287.125.375.099.088.276.096.531.062.057-.001.123-.001.219-.031.096-.022.243-.064.438-.125.166-.057.4-.128.688-.188.287-.06.609-.109.969-.156l2.125-.281-2.5 18 7.25-.938 2.531-18.03 3.313-.438c.275-.036.477-.071.656-.125.18-.054.326-.12.438-.188.112-.067.197-.137.25-.219.053-.082.081-.161.094-.25.021-.152.006-.26-.094-.344-.1-.083-.285-.126-.531-.094m28.469.532c-.248 0-.489.022-.688.031-.198.001-.401.001-.656.031-.255.024-.577.046-.938.094-.361.048-.841.113-1.406.188l-4.625.625-2.094 14.906 6.094-.813c.268-.035.549-.079.844-.125.295-.046.579-.072.875-.125.296-.053.588-.119.875-.188.287-.069.552-.16.813-.25.757-.245 1.451-.56 2.063-.938.612-.377 1.151-.778 1.594-1.25.442-.472.788-1.013 1.063-1.563.274-.55.449-1.098.531-1.688.086-.611.063-1.153-.094-1.625-.157-.472-.416-.863-.75-1.188-.334-.324-.739-.576-1.219-.75-.479-.174-1-.29-1.563-.313.241-.156.456-.329.656-.531.2-.202.379-.429.531-.656.152-.227.275-.44.375-.688.1-.248.185-.511.219-.75.055-.393.017-.725-.094-1.031-.111-.306-.27-.574-.5-.781-.23-.207-.511-.365-.844-.469-.332-.104-.682-.158-1.063-.156m-.563.782c.154 0 .284-.011.406 0 .361.028.674.105.906.219.232.114.402.269.531.438.13.169.21.354.25.563.04.208.063.432.031.656-.046.33-.179.619-.344.906-.164.287-.358.557-.594.781-.236.224-.499.39-.781.531-.283.141-.537.245-.813.281l-.188.031c-.056.001-.139 0-.219 0-.072 0-.125 0-.188 0-.062 0-.119 0-.156 0-.164.022-.307.053-.438.125-.131.072-.225.199-.25.375-.017.119.026.236.125.313.099.077.262.094.5.062.067-.001.155-.016.219-.031.064-.015.126-.041.188-.062.06-.015.12-.019.188-.031.067-.012.121-.022.188-.031.774-.102 1.45-.102 2.031 0 .581.102 1.065.274 1.438.563.372.288.627.663.781 1.125.154.462.212 1.01.125 1.625-.055.393-.188.794-.375 1.188-.187.393-.445.771-.75 1.125-.305.354-.647.69-1.063 1-.416.31-.893.555-1.406.781-.18.086-.383.198-.625.281-.242.084-.504.144-.781.219-.277.075-.546.155-.844.219-.297.063-.616.118-.906.156l-1.219.156 1.875-13.375c.35-.046.639-.065.906-.094.267-.028.516-.049.719-.062.203-.013.377-.028.531-.031zm-11.844.625c-.171.023-.327.08-.438.188-.11.108-.163.262-.188.438-.015.105-.036.288-.031.563-.006.097-.02.215-.031.344-.011.129-.011.259-.031.406l-.813 5.719c-.178 1.216-.469 2.282-.906 3.188-.437.906-.981 1.659-1.594 2.281-.613.622-1.284 1.115-2.031 1.469-.747.354-1.516.582-2.313.688-.089.012-.21.017-.344.031-.133.014-.283.021-.438.031-.155.001-.307.024-.469.031-.162.001-.315 0-.469 0l2-14.188-5.719.75-1.156 8.281c-.129.92-.088 1.777.094 2.563.182.786.527 1.457 1.031 2 .504.543 1.158.94 2 1.188.842.247 1.864.284 3.063.125 1.094-.145 2.115-.44 3.03-.906.916-.466 1.708-1.076 2.406-1.781.698-.706 1.27-1.499 1.719-2.406.448-.907.763-1.881.906-2.906l.875-6.281c.037-.267.065-.543.125-.813.021-.099.044-.203.063-.281.018-.078.051-.134.063-.219.021-.148 0-.273-.063-.375-.062-.102-.173-.148-.344-.125m-41.28 5.563l-5.688.75-2.094 14.906 5.688-.75 2.094-14.906m-40.844.563l-7.688 12.281-4.688-10.625-8.156 17.281c-.162.293-.295.52-.406.719-.112.199-.196.384-.281.531-.086.147-.172.282-.25.406-.078.124-.155.262-.25.406-.153.231-.285.409-.344.531-.059.122-.086.261-.125.406-.053.182-.045.316.031.438.076.121.198.193.375.188.215-.011.413-.117.594-.281.181-.164.366-.431.531-.813.077-.15.149-.302.219-.469.07-.167.156-.357.25-.563.094-.205.182-.451.313-.719.13-.267.323-.576.531-.938l2.813-6.125 4.375 8.906 6.969-11.438 2.063 9.75 7.625-1-4.5-18.875m30.844.656c-.134.018-.239.06-.344.156-.105.097-.162.255-.188.438-.016.112-.029.181-.031.25-.002.069-.027.181-.031.313-.0001.11.013.267 0 .438-.013.171-.051.385-.094.688l-.875 6.281-10.875-7.469-1.813 13.09c-.053.379-.112.705-.156.969-.044.264-.086.471-.125.594-.031.114-.062.215-.094.313-.032.097-.052.173-.063.25-.02.14.001.265.094.344.084.079.195.113.344.094.141-.019.288-.107.406-.219.118-.112.162-.255.188-.438.008-.056.021-.121.031-.219.001-.098.019-.236.031-.375.012-.139.039-.269.063-.438l.063-.531.906-6.375 10.875 7.375 1.844-13.219c.049-.351.092-.598.125-.781.033-.184.069-.341.094-.469.021-.099.051-.2.063-.281.011-.081.014-.186.031-.313.028-.197-.021-.337-.125-.406-.104-.069-.217-.079-.344-.062m-16.406 2.28l-5.688.75-2.094 14.906 5.719-.75 2.063-14.906" fill="#fed38f" transform="translate(0-990.36)"/></svg>