<?xml version="1.0" encoding="UTF-8" standalone="no"?>
<svg
   xmlns:dc="http://purl.org/dc/elements/1.1/"
   xmlns:cc="http://creativecommons.org/ns#"
   xmlns:rdf="http://www.w3.org/1999/02/22-rdf-syntax-ns#"
   xmlns:svg="http://www.w3.org/2000/svg"
   xmlns="http://www.w3.org/2000/svg"
   xmlns:sodipodi="http://sodipodi.sourceforge.net/DTD/sodipodi-0.dtd"
   xmlns:inkscape="http://www.inkscape.org/namespaces/inkscape"
   viewBox="0 0 184 62"
   id="svg2"
   version="1.1"
   inkscape:version="0.48.5 r10040"
   width="100%"
   height="100%"
   sodipodi:docname="label_bakelite.svg">
  <metadata
     id="metadata10">
    <rdf:RDF>
      <cc:Work
         rdf:about="">
        <dc:format>image/svg+xml</dc:format>
        <dc:type
           rdf:resource="http://purl.org/dc/dcmitype/StillImage" />
      </cc:Work>
    </rdf:RDF>
  </metadata>
  <defs
     id="defs8" />
  <sodipodi:namedview
     pagecolor="#ffffff"
     bordercolor="#666666"
     borderopacity="1"
     objecttolerance="10"
     gridtolerance="10"
     guidetolerance="10"
     inkscape:pageopacity="0"
     inkscape:pageshadow="2"
     inkscape:window-width="1280"
     inkscape:window-height="747"
     id="namedview6"
     showgrid="true"
     inkscape:zoom="3.4347826"
     inkscape:cx="92"
     inkscape:cy="31"
     inkscape:window-x="-8"
     inkscape:window-y="-8"
     inkscape:window-maximized="1"
     inkscape:current-layer="svg2">
    <inkscape:grid
       type="xygrid"
       id="grid2987" />
  </sodipodi:namedview>
  <path
     d="m 149.62,14 c -0.082,0.011 -0.188,0.015 -0.281,0.031 -0.094,0.016 -0.201,0.037 -0.344,0.062 -0.09,0.019 -0.173,0.048 -0.281,0.062 -0.108,0.014 -0.257,0.043 -0.406,0.062 l -8.406,1.094 -2.094,14.906 9.469,-1.25 c 0.402,-0.053 0.666,-0.13 0.844,-0.25 0.177,-0.12 0.295,-0.249 0.313,-0.375 0.018,-0.126 -0.012,-0.216 -0.094,-0.281 -0.082,-0.065 -0.244,-0.088 -0.438,-0.062 -0.052,0.001 -0.085,0.018 -0.156,0.031 -0.071,0.013 -0.197,0.04 -0.344,0.094 -0.144,0.04 -0.31,0.082 -0.531,0.125 -0.221,0.043 -0.484,0.086 -0.781,0.125 l -2.469,0.344 1.313,-9.406 2.281,-0.313 c 0.126,-0.017 0.244,-0.025 0.344,-0.031 0.1,-0.001 0.169,0 0.25,0 0.119,-0.016 0.215,-0.026 0.281,-0.031 0.066,-0.001 0.152,-0.022 0.219,-0.031 0.193,-0.026 0.347,-0.068 0.469,-0.156 0.122,-0.089 0.198,-0.227 0.219,-0.375 0.019,-0.133 -0.051,-0.223 -0.156,-0.281 -0.105,-0.058 -0.243,-0.084 -0.406,-0.062 -0.104,0.014 -0.171,0.045 -0.25,0.062 -0.079,0.017 -0.2,0.041 -0.313,0.062 -0.09,0.019 -0.178,0.001 -0.313,0.031 -0.134,0.021 -0.314,0.069 -0.5,0.094 l -2.031,0.25 0.469,-3.219 2.469,-0.313 c 0.298,-0.039 0.533,-0.051 0.75,-0.062 0.217,-0.012 0.394,-10e-4 0.531,0 0.137,0.001 0.243,0 0.313,0 0.07,0 0.135,-0.024 0.188,-0.031 0.193,-0.026 0.361,-0.073 0.469,-0.188 0.107,-0.114 0.171,-0.256 0.188,-0.375 0.02,-0.14 -0.058,-0.216 -0.188,-0.281 -0.13,-0.066 -0.318,-0.099 -0.594,-0.062 m -12.188,1.531 c -0.068,-0.001 -0.153,0.018 -0.25,0.031 -0.045,0.001 -0.113,-0.013 -0.188,0 -0.075,0.013 -0.198,0.047 -0.344,0.094 -0.137,0.039 -0.309,0.078 -0.531,0.125 -0.222,0.047 -0.484,0.117 -0.781,0.156 l -9.938,1.313 c -0.216,0.029 -0.414,0.05 -0.563,0.094 -0.149,0.044 -0.255,0.1 -0.344,0.156 -0.088,0.056 -0.146,0.123 -0.188,0.188 -0.042,0.064 -0.084,0.117 -0.094,0.188 -0.017,0.119 0.016,0.212 0.094,0.281 0.078,0.069 0.205,0.089 0.406,0.062 0.045,-0.001 0.112,-0.014 0.188,-0.031 0.075,-0.017 0.191,-0.046 0.344,-0.094 0.13,-0.045 0.306,-0.078 0.531,-0.125 0.226,-0.047 0.498,-0.088 0.781,-0.125 l 1.656,-0.219 -1.969,14.12 5.719,-0.75 1.969,-14.156 2.594,-0.344 c 0.216,-0.029 0.39,-0.051 0.531,-0.094 0.141,-0.043 0.256,-0.103 0.344,-0.156 0.088,-0.053 0.146,-0.092 0.188,-0.156 0.042,-0.064 0.084,-0.149 0.094,-0.219 0.017,-0.119 -0.015,-0.216 -0.094,-0.281 -0.039,-0.033 -0.088,-0.053 -0.156,-0.062 m -14.906,2.094 -5.719,0.75 -2.094,14.906 5.719,-0.75 2.094,-14.906 m -12.09,1.594 -5.688,0.75 -2.094,14.906 9.06,-1.188 c 0.409,-0.054 0.701,-0.162 0.875,-0.281 0.174,-0.12 0.264,-0.217 0.281,-0.344 0.024,-0.169 -0.004,-0.283 -0.094,-0.344 -0.09,-0.06 -0.244,-0.088 -0.438,-0.062 -0.045,10e-4 -0.107,0.02 -0.219,0.062 -0.112,0.042 -0.254,0.109 -0.406,0.156 -0.13,0.045 -0.282,0.069 -0.469,0.125 -0.187,0.056 -0.429,0.118 -0.719,0.156 l -2.094,0.281 2,-14.219 m -9.531,1.219 c -0.082,0.011 -0.157,0.047 -0.25,0.062 -0.094,0.016 -0.233,0.037 -0.375,0.062 -0.09,0.019 -0.173,0.017 -0.281,0.031 -0.108,0.014 -0.226,0.043 -0.375,0.062 l -8.438,1.125 -2.094,14.906 9.469,-1.281 c 0.402,-0.053 0.698,-0.13 0.875,-0.25 0.177,-0.12 0.264,-0.249 0.281,-0.375 0.018,-0.126 -0.012,-0.216 -0.094,-0.281 -0.082,-0.065 -0.213,-0.088 -0.406,-0.062 -0.052,0.001 -0.116,0.018 -0.188,0.031 -0.071,0.013 -0.197,0.04 -0.344,0.094 -0.144,0.04 -0.31,0.082 -0.531,0.125 -0.221,0.043 -0.484,0.086 -0.781,0.125 l -2.469,0.344 1.313,-9.406 2.281,-0.313 c 0.126,-0.017 0.244,-0.025 0.344,-0.031 0.1,-10e-4 0.2,0 0.281,0 0.119,-0.016 0.184,-0.026 0.25,-0.031 0.067,-0.001 0.152,-0.022 0.219,-0.031 0.193,-0.026 0.347,-0.068 0.469,-0.156 0.122,-0.089 0.198,-0.227 0.219,-0.375 0.019,-0.133 -0.02,-0.223 -0.125,-0.281 -0.105,-0.058 -0.243,-0.084 -0.406,-0.062 -0.104,0.014 -0.202,0.045 -0.281,0.062 -0.079,0.017 -0.169,0.041 -0.281,0.062 -0.09,0.019 -0.209,0.041 -0.344,0.062 -0.134,0.021 -0.283,0.038 -0.469,0.062 l -2.031,0.281 0.438,-3.219 2.469,-0.344 c 0.298,-0.039 0.564,-0.051 0.781,-0.062 0.217,-0.012 0.394,-10e-4 0.531,0 0.137,0.001 0.243,0 0.313,0 0.07,0 0.104,0.001 0.156,0 0.193,-0.026 0.361,-0.105 0.469,-0.219 0.107,-0.114 0.171,-0.224 0.188,-0.344 0.02,-0.14 -0.027,-0.247 -0.156,-0.313 -0.13,-0.066 -0.35,-0.099 -0.625,-0.062 M 87.06,22.181 c -0.06,10e-4 -0.134,0.045 -0.188,0.062 -0.054,0.017 -0.1,0.024 -0.156,0.062 -0.057,0.038 -0.117,0.095 -0.188,0.156 -0.071,0.061 -0.149,0.154 -0.25,0.25 -0.246,0.246 -0.5,0.468 -0.75,0.688 -0.25,0.219 -0.562,0.453 -0.906,0.719 l -4.375,3.375 0.625,-4.375 -5.688,0.75 -2.094,14.906 5.688,-0.75 1.344,-9.531 2.563,-1.969 2.75,8.813 c 0.073,0.259 0.117,0.5 0.156,0.688 0.039,0.188 0.075,0.302 0.094,0.375 0.035,0.168 0.065,0.293 0.094,0.375 0.029,0.082 0.058,0.161 0.094,0.219 0.064,0.067 0.15,0.124 0.219,0.156 0.068,0.032 0.146,0.045 0.25,0.031 0.097,-0.013 0.169,-0.038 0.25,-0.094 0.081,-0.055 0.165,-0.146 0.219,-0.219 0.054,-0.073 0.074,-0.133 0.094,-0.219 0.019,-0.085 0.018,-0.17 0,-0.25 -0.031,-0.092 -0.052,-0.19 -0.094,-0.281 -0.042,-0.091 -0.102,-0.213 -0.156,-0.344 -0.036,-0.105 -0.074,-0.213 -0.125,-0.344 -0.051,-0.131 -0.1,-0.266 -0.156,-0.438 l -2.844,-9.125 2.75,-2.125 c 0.246,-0.191 0.444,-0.339 0.594,-0.469 0.15,-0.13 0.293,-0.254 0.375,-0.344 0.082,-0.09 0.126,-0.156 0.156,-0.219 0.031,-0.063 0.054,-0.124 0.063,-0.188 0.016,-0.112 -0.022,-0.187 -0.094,-0.25 -0.072,-0.063 -0.164,-0.113 -0.313,-0.094 z m -36.688,1.156 c -0.316,0 -0.622,0.02 -0.875,0.031 -0.253,0.011 -0.519,0.033 -0.844,0.062 -0.325,0.03 -0.728,0.064 -1.188,0.125 -0.459,0.061 -1.062,0.124 -1.781,0.219 l -5.906,0.813 -2.656,18.969 7.75,-1.031 c 0.341,-0.045 0.687,-0.098 1.063,-0.156 0.375,-0.058 0.748,-0.12 1.125,-0.188 0.377,-0.067 0.759,-0.162 1.125,-0.25 0.366,-0.088 0.699,-0.167 1.031,-0.281 0.964,-0.312 1.847,-0.707 2.625,-1.188 0.778,-0.48 1.437,-1.024 2,-1.625 0.563,-0.601 1.026,-1.269 1.375,-1.969 0.349,-0.7 0.582,-1.406 0.688,-2.156 0.109,-0.778 0.074,-1.462 -0.125,-2.063 -0.199,-0.601 -0.512,-1.118 -0.938,-1.531 -0.425,-0.413 -0.952,-0.747 -1.563,-0.969 -0.61,-0.222 -1.257,-0.346 -1.969,-0.375 0.307,-0.198 0.558,-0.43 0.813,-0.688 0.254,-0.257 0.494,-0.524 0.688,-0.813 0.194,-0.289 0.341,-0.591 0.469,-0.906 0.128,-0.315 0.239,-0.602 0.281,-0.906 0.07,-0.5 0.016,-0.954 -0.125,-1.344 -0.141,-0.389 -0.363,-0.705 -0.656,-0.969 -0.293,-0.264 -0.64,-0.492 -1.063,-0.625 -0.423,-0.133 -0.86,-0.19 -1.344,-0.188 m -0.719,1 c 0.196,0 0.375,-0.014 0.531,0 0.46,0.036 0.829,0.136 1.125,0.281 0.296,0.145 0.522,0.316 0.688,0.531 0.165,0.215 0.261,0.454 0.313,0.719 0.051,0.265 0.071,0.558 0.031,0.844 -0.059,0.42 -0.197,0.791 -0.406,1.156 -0.209,0.365 -0.45,0.715 -0.75,1 -0.3,0.285 -0.64,0.508 -1,0.688 -0.36,0.179 -0.712,0.297 -1.063,0.344 -0.085,0.011 -0.179,0.022 -0.25,0.031 -0.071,0.001 -0.148,0 -0.25,0 -0.092,-10e-4 -0.171,0 -0.25,0 -0.079,0 -0.14,-10e-4 -0.188,0 -0.208,0.028 -0.396,0.095 -0.563,0.188 -0.166,0.092 -0.281,0.245 -0.313,0.469 -0.021,0.152 0.03,0.278 0.156,0.375 0.126,0.097 0.353,0.134 0.656,0.094 0.085,-0.011 0.168,-0.043 0.25,-0.062 0.082,-0.02 0.172,-0.035 0.25,-0.062 0.077,-0.019 0.133,-0.047 0.219,-0.062 0.086,-0.016 0.196,-0.02 0.281,-0.031 0.985,-0.13 1.823,-0.13 2.563,0 0.739,0.13 1.37,0.383 1.844,0.75 0.474,0.367 0.804,0.849 1,1.438 0.196,0.588 0.235,1.276 0.125,2.063 -0.07,0.501 -0.231,0.999 -0.469,1.5 -0.238,0.501 -0.549,0.956 -0.938,1.406 -0.388,0.45 -0.846,0.887 -1.375,1.281 -0.529,0.395 -1.127,0.743 -1.781,1.031 -0.229,0.109 -0.474,0.206 -0.781,0.313 -0.308,0.107 -0.647,0.218 -1,0.313 -0.353,0.095 -0.715,0.169 -1.094,0.25 -0.378,0.081 -0.756,0.139 -1.125,0.188 l -1.594,0.219 2.406,-17 c 0.445,-0.059 0.817,-0.12 1.156,-0.156 0.34,-0.036 0.648,-0.046 0.906,-0.062 0.258,-0.017 0.492,-0.027 0.688,-0.031 z m 15.5,0.219 -7.344,13.5 -0.094,-0.031 c -0.181,-0.001 -0.32,-0.001 -0.438,0 -0.118,10e-4 -0.213,0.026 -0.25,0.031 -0.156,0.021 -0.292,0.069 -0.406,0.156 -0.115,0.088 -0.168,0.203 -0.188,0.344 -0.017,0.119 0.009,0.206 0.094,0.281 0.084,0.075 0.208,0.12 0.375,0.125 0.058,10e-4 0.122,0 0.188,0 0.066,0 0.138,0 0.219,0 -0.146,0.261 -0.263,0.479 -0.375,0.656 -0.112,0.177 -0.222,0.315 -0.313,0.438 -0.123,0.147 -0.212,0.269 -0.281,0.375 -0.07,0.106 -0.115,0.211 -0.125,0.281 -0.017,0.119 0.016,0.209 0.094,0.281 0.077,0.072 0.171,0.112 0.313,0.094 0.171,-0.023 0.315,-0.099 0.438,-0.219 0.123,-0.12 0.275,-0.363 0.438,-0.688 0.072,-0.147 0.16,-0.319 0.281,-0.531 0.121,-0.212 0.271,-0.477 0.438,-0.781 0.333,-0.03 0.71,-0.07 1.156,-0.125 0.446,-0.056 0.993,-0.104 1.625,-0.188 l 3.125,-0.438 0.656,1.75 5.844,-0.75 -5.469,-14.563 m -3.281,7.531 2,5.313 -3.281,0.438 c -0.216,0.029 -0.492,0.061 -0.844,0.094 -0.351,0.033 -0.709,0.075 -1.063,0.094 l 3.188,-5.938"
     id="path4"
     inkscape:connector-curvature="0"
     style="fill:#fed38f" />
</svg>
