<?xml version="1.0" encoding="UTF-8" standalone="no"?>
<svg
   xmlns:dc="http://purl.org/dc/elements/1.1/"
   xmlns:cc="http://creativecommons.org/ns#"
   xmlns:rdf="http://www.w3.org/1999/02/22-rdf-syntax-ns#"
   xmlns:svg="http://www.w3.org/2000/svg"
   xmlns="http://www.w3.org/2000/svg"
   xmlns:sodipodi="http://sodipodi.sourceforge.net/DTD/sodipodi-0.dtd"
   xmlns:inkscape="http://www.inkscape.org/namespaces/inkscape"
   viewBox="0 0 293 85"
   id="svg2"
   version="1.1"
   inkscape:version="0.48.5 r10040"
   width="100%"
   height="100%"
   sodipodi:docname="label_categories.svg">
  <metadata
     id="metadata10">
    <rdf:RDF>
      <cc:Work
         rdf:about="">
        <dc:format>image/svg+xml</dc:format>
        <dc:type
           rdf:resource="http://purl.org/dc/dcmitype/StillImage" />
      </cc:Work>
    </rdf:RDF>
  </metadata>
  <defs
     id="defs8" />
  <sodipodi:namedview
     pagecolor="#ffffff"
     bordercolor="#666666"
     borderopacity="1"
     objecttolerance="10"
     gridtolerance="10"
     guidetolerance="10"
     inkscape:pageopacity="0"
     inkscape:pageshadow="2"
     inkscape:window-width="1280"
     inkscape:window-height="747"
     id="namedview6"
     showgrid="false"
     inkscape:zoom="1.3080563"
     inkscape:cx="60.394955"
     inkscape:cy="13.534451"
     inkscape:window-x="-8"
     inkscape:window-y="-8"
     inkscape:window-maximized="1"
     inkscape:current-layer="svg2" />
  <path
     d="m 252.90079,16.410012 c -0.61391,-0.01889 -1.2169,-0.02688 -1.85121,0.05562 -1.29935,0.172331 -2.49727,0.513452 -3.53507,0.953299 -1.03686,0.441656 -1.89036,0.955111 -2.63678,1.570903 -0.74741,0.615788 -1.35194,1.328543 -1.79599,2.075378 -0.44268,0.746853 -0.73046,1.506278 -0.84153,2.299794 -0.0956,0.649917 -0.0956,1.229795 0,1.79532 0.0964,0.565521 0.29448,1.149002 0.61781,1.684006 0.3212,0.534989 0.76603,1.035892 1.3463,1.570891 0.58007,0.534999 1.34974,1.09335 2.24409,1.683999 0.81535,0.540392 1.49359,1.055659 2.0756,1.459581 0.58143,0.403944 1.068,0.75763 1.45914,1.066451 0.39154,0.306962 0.72949,0.556494 0.95343,0.786307 0.2269,0.228007 0.3414,0.423726 0.44941,0.617606 0.10834,0.193843 0.20414,0.385981 0.2244,0.561915 8.8e-4,0.174418 0.0292,0.375224 0,0.561921 -0.0485,0.330366 -0.2244,0.599663 -0.44818,0.89765 -0.22547,0.298064 -0.52674,0.594258 -0.898,0.842015 -0.37193,0.245992 -0.77771,0.438068 -1.29068,0.617583 -0.51363,0.17971 -1.11676,0.310607 -1.74021,0.393206 -0.61187,0.08071 -1.17245,0.123703 -1.73935,0.113215 -0.56754,-0.01371 -1.12584,-0.07192 -1.6266,-0.168518 -0.50098,-0.09557 -0.93179,-0.219121 -1.34646,-0.39316 -0.41474,-0.171986 -0.76659,-0.384173 -1.06597,-0.617567 -0.19862,-0.176238 -0.38308,-0.287253 -0.50465,-0.337563 -0.12433,-0.05031 -0.26392,-0.02534 -0.449,0 -0.21815,0.02904 -0.42911,0.09173 -0.5622,0.224456 -0.12845,0.133154 -0.19665,0.272868 -0.22461,0.448842 -0.0503,0.341085 0.0955,0.59602 0.33701,0.786305 0.2481,0.190069 0.54379,0.405767 0.8982,0.561979 0.74641,0.335663 1.61711,0.565481 2.63703,0.673238 1.01962,0.107404 2.1294,0.04303 3.31086,-0.113435 1.2999,-0.171994 2.50802,-0.479339 3.64604,-0.953304 1.14032,-0.473948 2.14711,-1.035886 3.03068,-1.739628 0.88138,-0.703803 1.57215,-1.524249 2.13266,-2.412944 0.55881,-0.888661 0.92481,-1.850946 1.066,-2.861702 0.09,-0.608608 0.11676,-1.17054 0.0592,-1.739662 -0.062,-0.569116 -0.28887,-1.163368 -0.67323,-1.795329 -0.38409,-0.631971 -0.99422,-1.377022 -1.79496,-2.132853 -0.80108,-0.754036 -1.86933,-1.599618 -3.25516,-2.581657 -0.7018,-0.504488 -1.27638,-0.944332 -1.68397,-1.290829 -0.40694,-0.346496 -0.70186,-0.644517 -0.89778,-0.897662 -0.19383,-0.253142 -0.29805,-0.429074 -0.33713,-0.617587 -0.0417,-0.18668 -0.0296,-0.375214 0,-0.561924 0.063,-0.443446 0.26745,-0.845593 0.67334,-1.177735 0.40535,-0.332131 1.00686,-0.5763 1.7395,-0.67323 0.546,-0.07185 1.02864,-0.06814 1.51537,-0.05565 0.48615,0.0102 0.93898,0.03406 1.34641,0.113139 0.40773,0.0772 0.75599,0.20996 1.06664,0.337518 0.30854,0.125699 0.59358,0.226218 0.78603,0.393171 0.1626,0.120292 0.28532,0.238788 0.39294,0.28008 0.10913,0.04124 0.24044,0.01887 0.39326,0 0.18299,-0.02507 0.31774,-0.08978 0.4489,-0.224398 0.12825,-0.132849 0.19623,-0.272891 0.22495,-0.448835 0.0434,-0.289031 -0.0615,-0.556541 -0.39325,-0.786342 -0.33229,-0.229795 -0.94581,-0.461383 -1.79471,-0.673234 -0.50137,-0.105973 -1.06881,-0.149049 -1.684,-0.168764 m -14.13826,1.964088 c -0.14717,-0.01021 -0.35966,0.02899 -0.56261,0.05564 -0.11626,0.01607 -0.25473,0.03235 -0.39246,0.05565 -0.13627,0.02332 -0.29658,8.33e-4 -0.5046,0.0555 -0.13003,0.027 -0.29114,0.09167 -0.4488,0.113068 -0.15655,0.0207 -0.34323,0.02688 -0.56255,0.05562 l -12.343,1.626554 -3.08617,21.88125 13.91356,-1.795314 c 0.5904,-0.07704 1.03088,-0.217329 1.29116,-0.39318 0.26027,-0.176231 0.36622,-0.37522 0.39304,-0.561935 0.0282,-0.184686 0.005,-0.297997 -0.1155,-0.393148 -0.11865,-0.09558 -0.33205,-0.148763 -0.61792,-0.113226 -0.0806,0.0137 -0.17328,0.03749 -0.28,0.05528 -0.10557,8.3e-4 -0.23354,0.09003 -0.44884,0.168586 -0.2112,0.05903 -0.51658,0.103843 -0.84146,0.168534 -0.32501,0.06253 -0.68458,0.111693 -1.1223,0.168616 l -3.64615,0.504489 1.96368,-13.802353 3.31111,-0.448829 c 0.18205,-0.02499 0.35873,-0.04673 0.5042,-0.05563 0.14417,-0.0086 0.27475,-0.05027 0.39285,-0.05568 0.1724,-0.02335 0.35234,0.0068 0.44879,0 0.0989,-0.0068 0.17914,-0.04314 0.2807,-0.05557 0.28286,-0.0378 0.49367,-0.09514 0.67276,-0.22439 0.17711,-0.129311 0.30703,-0.344705 0.33786,-0.561931 0.031,-0.195664 -0.072,-0.306988 -0.22481,-0.39317 -0.15379,-0.08618 -0.32201,-0.143658 -0.56235,-0.113116 -0.15131,0.01891 -0.2762,0.08627 -0.39308,0.113116 -0.1113,0.02512 -0.28372,0.02338 -0.44875,0.05561 -0.13003,0.02701 -0.30708,0.08084 -0.5043,0.113036 -0.19666,0.03052 -0.40043,0.0189 -0.67347,0.0556 l -3.03071,0.393172 0.67337,-4.712697 3.64673,-0.448832 c 0.43781,-0.05744 0.80243,-0.09512 1.1214,-0.113116 0.31968,-0.01609 0.58367,-0.0139 0.78688,0 0.19937,0.01389 0.34667,0.0016 0.44846,0 0.10087,-0.0016 0.20324,0.01019 0.28029,0 0.28342,-0.03772 0.5154,-0.168796 0.67313,-0.337524 0.15651,-0.166924 0.25658,-0.330334 0.2802,-0.504482 0.0327,-0.206405 -0.0933,-0.351876 -0.2802,-0.448826 -0.0965,-0.04857 -0.18645,-0.102208 -0.33717,-0.113139 m -20.02884,2.693969 -8.35898,1.066414 -3.08615,21.88126 8.35889,-1.066415 3.08624,-21.881259 m -21.03933,2.86175 c -0.31956,0.01602 -0.69118,0.0772 -1.06643,0.113101 -0.3752,0.03406 -0.75391,0.0592 -1.23504,0.113047 -0.47943,0.05363 -1.06642,0.08622 -1.68399,0.168764 -0.61769,0.08082 -1.33395,0.231615 -2.13288,0.337535 l -5.49892,0.728868 -3.08618,21.881255 8.35891,-1.122072 2.91733,-20.759183 c 0.17632,-0.03406 0.39317,-0.08264 0.61766,-0.113139 0.22444,-0.02898 0.43446,-0.07357 0.7288,-0.113021 0.75411,-0.100546 1.47585,-0.134683 2.07543,-0.168734 0.59969,-0.03406 1.09698,-1.77e-4 1.57086,0.05566 0.85463,0.09869 1.62659,0.280069 2.29989,0.561933 0.67325,0.280065 1.24407,0.658885 1.68394,1.122066 0.43992,0.463198 0.77199,0.973052 0.95339,1.626559 0.18149,0.653483 0.17623,1.44343 0.0559,2.299795 -0.13329,0.949709 -0.4238,1.834808 -0.89775,2.692949 -0.47394,0.858177 -1.08426,1.624755 -1.7953,2.299809 -0.71095,0.676853 -1.46849,1.236961 -2.35726,1.683977 -0.88857,0.44704 -1.85447,0.716358 -2.80603,0.842023 -0.10979,0.01737 -0.19372,0.05031 -0.28003,0.05534 -0.0863,0.0085 -0.13826,-1.78e-4 -0.22455,0 -0.11668,-0.006 -0.27456,-0.006 -0.39304,0 -0.11908,0.006 -0.22803,0.03403 -0.39311,0.05557 -0.38252,0.05032 -0.68949,0.131294 -0.89781,0.280053 -0.20821,0.148657 -0.30873,0.364437 -0.33742,0.561917 -0.0239,0.164955 0.032,0.315992 0.16828,0.448835 0.13657,0.133137 0.40404,0.1703 0.84221,0.113367 0.0649,-0.01109 0.10304,-0.04312 0.16814,-0.05523 0.0669,-0.01736 0.16001,-0.04696 0.22447,-0.05553 0.0553,-8.28e-4 0.10722,0.01603 0.16859,0 0.0604,-0.016 0.11357,-0.04863 0.1683,-0.05534 0.17429,-0.02375 0.28192,-0.0339 0.3376,0 0.0545,0.03393 0.11668,0.172018 0.1685,0.337522 0.0381,0.116822 0.0649,0.231642 0.11356,0.393175 0.0477,0.161827 0.14169,0.364461 0.22435,0.617593 0.30883,1.012552 0.68233,1.852785 1.12214,2.468565 0.43977,0.615798 0.97655,1.014341 1.57075,1.290837 0.38783,0.211839 0.78111,0.387779 1.23522,0.448831 0.45252,0.06078 0.90852,0.05725 1.34655,0 0.65526,-0.08605 1.14361,-0.253142 1.51527,-0.448831 0.36973,-0.195756 0.58164,-0.425497 0.61751,-0.673265 0.0557,-0.391352 -0.0989,-0.558324 -0.50451,-0.504439 -0.088,0.01369 -0.18987,0.08076 -0.27994,0.113333 -0.09,0.03239 -0.1992,0.05363 -0.33757,0.113359 -0.12676,0.06828 -0.26221,0.120163 -0.39322,0.168602 -0.12937,0.04863 -0.23877,0.09823 -0.33743,0.113317 -0.48121,0.06256 -0.95152,0 -1.40213,-0.113317 -0.45065,-0.113315 -0.89596,-0.310596 -1.29087,-0.673273 -0.39498,-0.362671 -0.74684,-0.90485 -1.06634,-1.570904 -0.31955,-0.666041 -0.56559,-1.490098 -0.78642,-2.524214 1.11312,-0.359063 2.15432,-0.854537 3.08621,-1.459555 0.93168,-0.605022 1.71445,-1.31059 2.41283,-2.075387 0.69665,-0.76487 1.29989,-1.590715 1.73973,-2.468614 0.43989,-0.87789 0.71287,-1.775551 0.84203,-2.692947 0.13542,-0.95871 0.0723,-1.813281 -0.16848,-2.581695 -0.24012,-0.774528 -0.63873,-1.463926 -1.17732,-2.020488 -0.53843,-0.556551 -1.21708,-0.971262 -2.01961,-1.290828 -0.80254,-0.319562 -1.70197,-0.509878 -2.69295,-0.56194 -0.31063,-0.0086 -0.60856,1.93e-4 -0.89775,0 -0.28898,-1.79e-4 -0.57807,-0.01602 -0.89767,0 m -26.8162,3.197395 c -0.40582,0.01886 -0.80793,0.05568 -1.23529,0.11306 -1.73784,0.229783 -3.38959,0.768381 -4.93713,1.515225 -1.54751,0.74687 -2.93704,1.62656 -4.1525,2.748632 -1.21368,1.122077 -2.17954,2.398546 -2.97313,3.815034 -0.79345,1.416517 -1.34991,2.910209 -1.57082,4.488286 -0.24953,1.773748 -0.10366,3.378794 0.33758,4.712695 0.43979,1.333914 1.13287,2.402103 2.07534,3.254919 0.94254,0.85276 2.05381,1.45417 3.42183,1.795289 1.36805,0.341105 2.88149,0.380609 4.48827,0.168554 1.13639,-0.150591 2.24238,-0.400321 3.31056,-0.786315 1.06821,-0.384232 2.08078,-0.883336 3.0305,-1.459609 0.94964,-0.576293 1.82769,-1.202852 2.63731,-1.96408 0.8097,-0.759398 1.50623,-1.621174 2.13283,-2.524195 0.62481,-0.903044 1.15258,-1.885053 1.57084,-2.917383 0.41834,-1.032318 0.68585,-2.084368 0.84202,-3.197477 0.23338,-1.671453 0.17207,-3.132818 -0.22445,-4.432617 -0.39627,-1.299555 -1.0515,-2.412639 -1.96361,-3.254651 -0.91197,-0.842012 -2.0556,-1.39317 -3.42183,-1.739652 -1.025,-0.258527 -2.15077,-0.398569 -3.36619,-0.337535 m -0.2801,1.177731 c 1.1005,-0.05212 2.12018,0.02506 3.03048,0.280071 1.21183,0.341102 2.22616,0.903034 3.03049,1.684 0.80244,0.779164 1.34102,1.757592 1.68395,2.917385 0.34113,1.159741 0.42376,2.447001 0.22446,3.870681 -0.21735,1.547544 -0.7198,2.992806 -1.45958,4.319501 -0.73789,1.328531 -1.60682,2.46857 -2.69299,3.479331 -1.08615,1.008938 -2.30701,1.881471 -3.64625,2.524202 -1.33931,0.642703 -2.7414,1.048443 -4.15255,1.235175 -0.22984,0.03083 -0.44167,0.03392 -0.72889,0.05538 -0.28731,0.02371 -0.58707,0.06672 -0.89768,0.0554 L 167.734,28.7525 c 0.33568,-0.09518 0.66253,-0.170443 0.95324,-0.224401 0.29273,-0.05363 0.56738,-0.08264 0.78635,-0.113081 0.38786,-0.05216 0.75591,-0.09514 1.12216,-0.11311 m -25.75229,2.299966 c -0.45067,0.01398 -0.87609,0.05027 -1.34647,0.11304 -1.26755,0.166914 -2.48115,0.470386 -3.64627,0.897664 -1.16516,0.42729 -2.29263,0.935368 -3.3106,1.570923 -1.01796,0.635522 -1.94608,1.380559 -2.80607,2.188474 -0.85817,0.807844 -1.59962,1.66068 -2.24413,2.581629 -0.64451,0.92099 -1.1562,1.906646 -1.57085,2.917419 -0.41475,1.012554 -0.69663,2.053835 -0.842,3.086135 -0.24241,1.723485 -0.18651,3.211797 0.22443,4.488256 0.41102,1.276464 1.07359,2.281863 1.964,3.086169 0.89047,0.804259 1.97312,1.366239 3.25484,1.683948 1.28019,0.315999 2.64278,0.368054 4.15266,0.168471 1.01617,-0.134846 2.05555,-0.341098 3.03053,-0.673244 0.97474,-0.332151 1.90652,-0.771985 2.80596,-1.290844 0.89946,-0.518816 1.73795,-1.140007 2.52421,-1.850929 0.78633,-0.710942 1.49195,-1.517069 2.13289,-2.412925 l -0.28028,2.075427 c -8.2e-4,0.12378 -0.0341,0.23879 -0.0552,0.393154 -0.0225,0.154836 -0.0305,0.30885 -0.0553,0.448826 -0.025,0.140653 -0.0916,0.278302 -0.11359,0.393195 -0.0216,0.115026 0.007,0.171971 0,0.224424 -0.0407,0.136317 -0.086,0.287255 -0.11345,0.393162 -0.0249,0.103814 -0.0486,0.17201 -0.0549,0.224438 -0.0672,0.473941 0.13631,0.680427 0.61752,0.617595 0.19774,-0.02538 0.39326,-0.116837 0.56191,-0.280087 0.16858,-0.163308 0.24602,-0.369852 0.28017,-0.61756 0.0247,-0.176258 0.041,-0.377033 0.0549,-0.561967 0.018,-0.184835 0.0358,-0.432677 0.0555,-0.728887 0.009,-0.143461 0.0341,-0.308783 0.0552,-0.504493 0.0216,-0.19573 0.0245,-0.400358 0.0551,-0.617595 l 0.72914,-5.105861 c 0.0376,-0.267512 0.0861,-0.491884 0.11354,-0.67324 0.0254,-0.181436 0.0704,-0.301612 0.11357,-0.448822 0.0412,-0.146875 0.0842,-0.328535 0.11352,-0.448851 0.0266,-0.119936 0.0358,-0.24772 0.0554,-0.393144 0.0306,-0.217276 -2.3e-4,-0.373411 -0.11362,-0.50449 -0.10981,-0.133127 -0.32138,-0.1993 -0.56189,-0.168594 -0.22985,0.03082 -0.36803,0.166885 -0.5045,0.337515 -0.13634,0.17028 -0.24772,0.38062 -0.28004,0.617601 -0.0216,0.145506 -0.0545,0.317758 -0.0552,0.561915 -0.005,0.11171 0.0164,0.208272 0,0.337559 -0.0164,0.127028 -0.0322,0.283624 -0.0553,0.448818 l -0.22445,1.515252 c -0.5997,1.141832 -1.27646,2.143614 -2.07539,3.03051 -0.80068,0.885067 -1.66603,1.617564 -2.58167,2.244153 -0.91381,0.626542 -1.87072,1.139998 -2.86166,1.515202 -0.99114,0.373439 -1.94445,0.657094 -2.9175,0.786339 h -0.33765 c -0.12021,0.01934 -0.27466,0.05035 -0.39314,0.05538 l 2.80597,-20.028233 c 0.56018,-0.176054 1.24231,-0.298037 1.9641,-0.393183 0.22978,-0.03062 0.42908,-0.08989 0.67313,-0.113102 0.24415,-0.02171 0.53502,0 0.842,0 0.30525,0 0.64097,0.01522 1.01078,0.05554 0.3698,0.04311 0.82046,0.07895 1.29084,0.168724 0.47751,0.109627 0.85816,0.281864 1.23519,0.504484 0.37698,0.224428 0.69659,0.441644 0.89769,0.617584 0.31049,0.231587 0.57985,0.315987 0.84203,0.28007 0.2082,-0.02717 0.40923,-0.118583 0.56184,-0.28007 0.15062,-0.161554 0.25314,-0.308789 0.28006,-0.504485 0.0286,-0.206379 -0.1686,-0.445177 -0.50442,-0.728842 -0.33564,-0.285231 -0.92085,-0.572469 -1.79523,-0.841774 -0.64628,-0.208339 -1.3842,-0.385996 -2.24413,-0.448828 -0.43089,-0.03233 -0.89585,-0.01399 -1.34653,0 m -18.34639,2.581667 c -0.12021,0.01756 -0.255,0.03231 -0.39318,0.05533 -0.13838,0.02363 -0.35195,0.07552 -0.56203,0.113402 -0.13303,0.02697 -0.23335,0.0357 -0.3931,0.05541 -0.158,0.02153 -0.34286,0.08253 -0.5619,0.113371 l -12.39813,1.626484 -3.08613,21.881234 13.91371,-1.850974 c 0.5906,-0.07693 1.03052,-0.217298 1.29076,-0.393178 0.26036,-0.176261 0.36619,-0.319537 0.39324,-0.504477 0.025,-0.184702 0.0114,-0.353666 -0.11333,-0.448818 -0.12012,-0.09551 -0.33217,-0.09339 -0.61757,-0.05532 -0.0766,0.0137 -0.17632,-8.38e-4 -0.28007,0 -0.10378,8.33e-4 -0.23338,0.09014 -0.44886,0.168561 -0.21187,0.05902 -0.51705,0.103857 -0.84202,0.168534 -0.32491,0.06256 -0.68396,0.166906 -1.12208,0.224427 l -3.64621,0.448826 1.96406,-13.802381 3.31056,-0.448817 c 0.18465,-0.02538 0.35901,-0.04695 0.50439,-0.05535 0.14563,-0.01109 0.27476,0.006 0.39323,0 0.17447,-0.02374 0.35191,-0.04862 0.44887,-0.0553 0.0972,-0.0085 0.18145,0.01602 0.28003,0 0.28373,-0.03758 0.49378,-0.150592 0.67325,-0.280057 0.17978,-0.129079 0.307,-0.289076 0.33747,-0.504526 0.0271,-0.195715 -0.018,-0.362631 -0.16855,-0.448814 -0.15478,-0.08606 -0.37699,-0.08824 -0.61763,-0.05526 -0.1527,0.02136 -0.2764,0.03078 -0.39312,0.05526 -0.11685,0.02528 -0.28369,0.08066 -0.44884,0.113319 -0.13313,0.02722 -0.30699,0.02533 -0.50449,0.05545 -0.19752,0.03059 -0.40038,0.07548 -0.67319,0.113413 l -2.97314,0.393194 0.61766,-4.712706 3.64625,-0.504444 c 0.43812,-0.05719 0.80258,-0.09546 1.12209,-0.113318 0.3196,-0.01888 0.58346,-0.0171 0.78636,0 0.20105,0.01714 0.34646,0.05916 0.44884,0.05541 0.10213,-0.002 0.20463,-0.0469 0.28014,-0.05541 0.28357,-0.03764 0.51518,-0.113394 0.67307,-0.280049 0.1584,-0.166923 0.25686,-0.330321 0.28013,-0.504453 0.0292,-0.206442 -0.0905,-0.409334 -0.28013,-0.504511 -0.18993,-0.0971 -0.43616,-0.109704 -0.84186,-0.05545 m -18.57084,2.299713 c -0.1099,0.02152 -0.29084,0.100322 -0.50445,0.168714 -0.20105,0.05726 -0.45959,0.100392 -0.78636,0.16846 -0.32676,0.06838 -0.68401,0.166885 -1.12206,0.224449 l -14.642591,1.908492 c -0.317759,0.04086 -0.567306,0.103844 -0.786336,0.168566 -0.2191,0.06444 -0.375215,0.141466 -0.504527,0.224388 -0.129064,0.0825 -0.219109,0.186479 -0.28005,0.280049 -0.06085,0.09551 -0.09725,0.178082 -0.113304,0.280111 -0.0255,0.176171 -1.67e-4,0.290837 0.113304,0.393185 0.115026,0.100318 0.321345,0.150585 0.617614,0.113272 0.0645,-0.01108 0.170263,-0.03079 0.280037,-0.05547 0.111745,-0.02533 0.280074,-0.09833 0.504504,-0.168498 0.191866,-0.06686 0.454198,-0.0985 0.786319,-0.168719 0.332148,-0.06829 0.707364,-0.1685 1.122112,-0.224421 l 2.412811,-0.280095 -2.917361,20.759207 8.416428,-1.122045 2.91737,-20.759211 3.81507,-0.504481 c 0.31773,-0.04091 0.57804,-0.10564 0.7863,-0.168642 0.20643,-0.06255 0.37523,-0.146881 0.50451,-0.224393 0.12906,-0.07713 0.21911,-0.129078 0.28007,-0.224463 0.0607,-0.09551 0.0972,-0.233376 0.11339,-0.337507 0.0254,-0.176227 -0.0537,-0.296235 -0.16853,-0.393178 -0.11502,-0.09557 -0.27649,-0.09335 -0.56196,-0.05527 -0.0645,0.01107 -0.17019,-0.02152 -0.28005,0 m -49.595592,3.085604 c -0.561926,0.02156 -1.138238,0.09713 -1.684009,0.16867 -2.10409,0.278206 -4.066375,0.874286 -5.947861,1.739634 -1.881488,0.865354 -3.574475,1.899421 -5.050198,3.197399 -1.475757,1.298058 -2.678609,2.816855 -3.646289,4.488286 -0.967645,1.671462 -1.588845,3.452392 -1.850971,5.330262 -0.271081,1.937165 -0.183217,3.631938 0.280068,5.16154 0.463239,1.529652 1.254949,2.804265 2.357251,3.815036 1.102325,1.010798 2.506249,1.71816 4.208231,2.1329 1.70192,0.414653 3.626522,0.516984 5.834758,0.224352 0.798934,-0.105608 1.61037,-0.280078 2.468554,-0.504454 0.858117,-0.224451 1.691148,-0.527839 2.46854,-0.841987 0.631928,-0.247822 1.287227,-0.495554 1.90844,-0.842069 0.621113,-0.346473 1.276457,-0.768322 1.964071,-1.235115 0.538596,-0.377017 0.861718,-0.698362 1.06637,-0.953344 0.203004,-0.256685 0.364427,-0.470351 0.39322,-0.673191 0.03082,-0.215366 -0.0111,-0.411199 -0.113466,-0.56197 -0.103746,-0.150586 -0.29439,-0.202932 -0.561929,-0.168532 -0.215306,0.02904 -0.436263,0.0825 -0.617583,0.224383 -0.181407,0.141704 -0.407493,0.380641 -0.728909,0.728895 -0.48111,0.509886 -1.037645,0.955141 -1.68397,1.3465 -0.646313,0.39141 -1.364427,0.727115 -2.075388,1.01075 -0.710926,0.281853 -1.411132,0.551187 -2.132825,0.728904 -0.721743,0.178071 -1.429072,0.306984 -2.075391,0.393187 -0.303424,0.03907 -0.640891,0.03391 -1.066422,0.05515 -0.42548,0.02154 -0.85633,0.06864 -1.290814,0.05562 l 3.197038,-23.003419 c 0.376981,-0.119916 0.798867,-0.25133 1.177701,-0.337463 0.378792,-0.08602 0.78991,-0.165021 1.235147,-0.224435 0.658885,-0.08608 1.305205,-0.11686 2.019764,-0.113452 0.7145,0.006 1.432628,0.05912 2.075394,0.168623 0.644476,0.107383 1.213591,0.247747 1.739608,0.448825 0.52606,0.201044 0.897653,0.482909 1.177727,0.786349 0.152815,0.156393 0.332139,0.283656 0.504511,0.337519 0.171996,0.05401 0.308767,8.33e-4 0.448818,0 0.253125,-0.03405 0.491899,-0.0918 0.673219,-0.280048 0.181492,-0.188492 0.305228,-0.445269 0.337551,-0.673278 0.03388,-0.238796 -0.140535,-0.504466 -0.504508,-0.786328 -0.364459,-0.280089 -1.050235,-0.531436 -2.07538,-0.842032 -0.369805,-0.114951 -0.81687,-0.202933 -1.290801,-0.280063 -0.473998,-0.07678 -0.978459,-0.140346 -1.515265,-0.168589 -0.536755,-0.02904 -1.064627,-0.07694 -1.626566,-0.05517 m 19.075183,0.168504 -10.771895,19.856143 h -0.113235 c -0.265743,-0.01934 -0.500891,-0.0085 -0.673271,0 -0.171993,0.0085 -0.281864,-0.0085 -0.337496,0 -0.229792,0.03076 -0.448819,0.09558 -0.617607,0.224425 -0.168441,0.129077 -0.25135,0.298021 -0.280037,0.504473 -0.02532,0.176302 -0.01602,0.339363 0.113374,0.448812 0.123783,0.109881 0.316004,0.160157 0.561921,0.168487 0.08401,0.01108 0.183498,0.002 0.280059,0 0.09724,-1.45e-4 0.217323,0.0061 0.337554,0 -0.215235,0.382398 -0.396778,0.694778 -0.561913,0.953336 -0.164976,0.260301 -0.316005,0.493669 -0.448837,0.673222 -0.181432,0.215261 -0.346504,0.405752 -0.448837,0.561931 -0.102159,0.15641 -0.154904,0.28903 -0.168451,0.393164 -0.02529,0.176275 0.05378,0.285462 0.168451,0.393198 0.113448,0.105646 0.240588,0.140319 0.448837,0.113347 0.251351,-0.03407 0.493685,-0.103754 0.673196,-0.28003 0.179788,-0.176302 0.378847,-0.533229 0.617596,-1.01077 0.10559,-0.217328 0.215345,-0.473993 0.393184,-0.786372 0.178063,-0.312365 0.427295,-0.674999 0.673277,-1.122039 0.488287,-0.04523 1.028676,-0.14327 1.683969,-0.224451 0.655322,-0.0808 1.482921,-0.158178 2.412907,-0.28004 l 4.601392,-0.617623 0.953307,2.581707 8.527716,-1.122095 -8.023319,-21.432459 m -4.76836,11.109394 2.917425,7.798821 -4.825829,0.673272 c -0.31772,0.04097 -0.718127,0.06448 -1.235135,0.113296 -0.517094,0.04862 -1.052081,0.08398 -1.570942,0.11347 l 4.712678,-8.696445"
     id="path4"
     inkscape:connector-curvature="0"
     style="fill:#fed38f" />
</svg>
