<svg xmlns="http://www.w3.org/2000/svg" viewBox="0 0 184 62"><path d="m167 1003.67c-.082.011-.188.047-.281.062-.094.016-.201.037-.344.062-.09.019-.173.017-.281.031-.108.014-.257.043-.406.062l-8.406 1.125-2.094 14.906 9.469-1.25c.402-.053.666-.161.844-.281.177-.12.295-.249.313-.375.018-.126-.012-.216-.094-.281-.082-.065-.244-.088-.438-.062-.052.001-.116.018-.188.031-.071.013-.166.04-.313.094-.144.04-.341.082-.563.125-.221.043-.452.086-.75.125l-2.469.344 1.313-9.406 2.281-.281c.126-.017.213-.056.313-.062.1-.001.2 0 .281 0 .119-.016.215-.026.281-.031.066-.001.121-.022.188-.031.193-.026.378-.068.5-.156.122-.089.167-.227.188-.375.019-.133-.02-.223-.125-.281-.105-.058-.243-.084-.406-.062-.104.014-.171.045-.25.062-.079.017-.2.041-.313.062-.09.019-.178.041-.313.062-.134.021-.314.038-.5.062l-2.031.281.469-3.219 2.469-.344c.298-.039.533-.051.75-.062.217-.012.394-.001.531 0 .137.001.243 0 .313 0 .07 0 .135.001.188 0 .193-.026.361-.105.469-.219.107-.114.139-.224.156-.344.02-.14-.027-.247-.156-.313-.13-.066-.318-.099-.594-.062m-46.25 2c-.421.016-.812.04-1.219.094-1.572.208-3.063.635-4.469 1.281-1.406.646-2.679 1.467-3.781 2.438-1.103.971-2.026 2.063-2.75 3.313-.724 1.249-1.178 2.597-1.375 4-.203 1.448-.128 2.732.219 3.875.346 1.143.926 2.089 1.75 2.844.824.755 1.884 1.284 3.156 1.594 1.272.31 2.727.374 4.375.156.597-.079 1.233-.207 1.875-.375.642-.168 1.231-.39 1.813-.625.472-.185.942-.398 1.406-.656.464-.259.955-.558 1.469-.906.402-.281.691-.528.844-.719.152-.191.229-.348.25-.5.022-.161-.017-.294-.094-.406-.077-.113-.207-.151-.406-.125-.161.021-.302.082-.438.188-.136.106-.322.271-.563.531-.36.381-.799.739-1.281 1.031-.482.292-.969.539-1.5.75-.531.211-1.086.367-1.625.5-.539.133-1.048.249-1.531.313-.227.03-.494.047-.813.062-.318.016-.645.001-.969 0l2.406-17.187c.282-.09.561-.155.844-.219.283-.064.606-.144.938-.188.492-.065.997-.066 1.531-.062.534 0 1.05.044 1.531.125.481.081.92.194 1.313.344.393.15.696.336.906.563.114.117.246.179.375.219.129.04.24.076.344.062.189-.025.333-.109.469-.25.136-.141.226-.299.25-.469.025-.179-.102-.384-.375-.594-.273-.21-.796-.424-1.563-.656-.276-.086-.583-.16-.938-.219-.354-.058-.724-.104-1.125-.125-.401-.022-.829-.016-1.25 0m28.969.156c-.212.011-.44.034-.656.062-.886.117-1.668.325-2.375.625-.707.3-1.336.675-1.844 1.094-.508.419-.886.866-1.188 1.375-.301.509-.518 1.053-.594 1.594-.062.442-.032.834.031 1.219.063.385.187.761.406 1.125.219.364.543.729.938 1.094.394.365.892.754 1.5 1.156.555.368 1.01.694 1.406.969.396.275.734.509 1 .719.266.209.472.407.625.563.153.155.271.306.344.438.073.132.112.256.125.375.012.119.018.217 0 .344-.031.225-.129.453-.281.656-.153.203-.34.394-.594.563-.254.168-.557.315-.906.438-.349.122-.732.194-1.156.25-.417.055-.833.07-1.219.062-.386-.001-.752-.029-1.094-.094-.341-.065-.655-.164-.938-.281-.283-.118-.515-.247-.719-.406-.137-.12-.261-.185-.344-.219-.083-.034-.186-.048-.313-.031-.149.02-.254.065-.344.156-.089.091-.14.193-.156.313-.032.232.019.402.188.531.168.129.384.269.625.375.508.229 1.087.364 1.781.438.694.074 1.446.075 2.25-.031.885-.117 1.724-.333 2.5-.656.776-.323 1.462-.74 2.063-1.219.6-.479 1.088-1.02 1.469-1.625.381-.605.622-1.249.719-1.938.058-.414.072-.831.031-1.219-.041-.388-.177-.788-.438-1.219-.261-.431-.674-.893-1.219-1.406-.545-.514-1.307-1.113-2.25-1.781-.478-.343-.848-.639-1.125-.875-.277-.236-.492-.422-.625-.594-.133-.172-.193-.341-.219-.469-.026-.128-.049-.249-.031-.375.042-.302.224-.555.5-.781.276-.226.658-.371 1.156-.438.372-.049.731-.07 1.063-.062.331.001.629.041.906.094.277.053.508.102.719.188.211.086.401.199.531.313.113.082.209.128.281.156.073.028.146.045.25.031.126-.017.223-.065.313-.156.089-.091.171-.193.188-.313.028-.197-.086-.375-.313-.531-.226-.156-.64-.325-1.219-.469-.34-.072-.707-.111-1.125-.125-.209-.001-.413-.011-.625 0m-15.562 1.563l-7.375 13.5h-.094c-.181-.011-.32-.001-.438 0-.118.001-.182 0-.219 0-.156.021-.292.1-.406.188-.115.088-.199.203-.219.344-.017.119.009.206.094.281.084.075.208.12.375.125.058.001.122 0 .188 0 .066 0 .138 0 .219 0-.146.261-.263.479-.375.656-.112.177-.222.315-.313.438-.123.147-.212.269-.281.375-.07.106-.115.211-.125.281-.017.119.016.209.094.281.078.072.202.081.344.062.171-.023.315-.068.438-.188.123-.12.244-.363.406-.688.072-.147.191-.319.313-.531.121-.212.271-.477.438-.781.333-.03.71-.07 1.156-.125.446-.056.993-.135 1.625-.219l3.125-.406.656 1.75 5.813-.75-5.438-14.594m-40.06 6.157c-.434 0-.959.018-1.531.062-.572.045-1.25.115-2.031.219l-4.625.625-2.094 14.906 3.781-.5c.848-.112 1.582-.228 2.219-.344.637-.115 1.218-.24 1.719-.375.501-.135.933-.297 1.344-.469.411-.172.847-.375 1.25-.594.745-.416 1.413-.88 2.031-1.406.618-.526 1.158-1.099 1.625-1.719.467-.62.857-1.268 1.156-1.969.299-.701.485-1.446.594-2.219.1-.716.125-1.396.031-2.031-.094-.635-.284-1.204-.563-1.719-.278-.514-.662-.974-1.125-1.344-.463-.37-1.018-.628-1.656-.813-.316-.089-.63-.164-.969-.219-.339-.055-.722-.089-1.156-.094m-1.281.813c.406-.024.764-.001 1.094 0 .659.016 1.224.087 1.688.219.577.158 1.083.385 1.5.719.417.334.748.749 1 1.219.252.47.417.984.5 1.563.083.578.09 1.205 0 1.844-.099.709-.291 1.364-.563 2-.272.636-.595 1.235-1 1.781-.405.547-.887 1.052-1.406 1.5-.519.448-1.069.82-1.656 1.156-.588.336-1.207.625-1.844.844-.637.219-1.259.383-1.906.469l-.25.031c-.1.013-.226.023-.344.031l1.844-13.25c.483-.057.938-.101 1.344-.125m38.06.594l1.969 5.313-3.25.438c-.216.029-.492.061-.844.094-.351.033-.709.043-1.063.062l3.188-5.906m-84.72.625c-.189.025-.354.098-.469.219-.115.12-.208.275-.281.469-.112.269-.218.547-.344.844-.125.297-.273.595-.438.906l-4.656 8.344-3.5-10.219-6.969 11.625-2.563-9.5-7.781 1.031 5.625 18.594 7.156-12.03 3.75 10.594 9.969-18.25c.202-.378.347-.698.469-.938.122-.24.24-.444.313-.594.072-.15.125-.256.156-.344.031-.087.052-.178.063-.25.021-.152-.021-.266-.094-.375-.073-.109-.207-.151-.406-.125m30.22.062c-.523-.02-1.076.017-1.656.094-1.183.157-2.29.492-3.344 1-1.054.508-1.986 1.142-2.813 1.906-.826.764-1.522 1.63-2.063 2.594-.54.964-.881 1.988-1.031 3.063-.169 1.208-.112 2.248.188 3.156.3.908.765 1.67 1.406 2.25.642.58 1.443.987 2.375 1.219.932.232 1.937.27 3.03.125.774-.102 1.523-.27 2.25-.531.727-.262 1.416-.608 2.063-1 .647-.392 1.23-.826 1.781-1.344.551-.517 1.043-1.104 1.469-1.719.426-.615.778-1.266 1.063-1.969.285-.703.487-1.429.594-2.188.159-1.138.114-2.147-.156-3.03-.27-.884-.723-1.615-1.344-2.188-.621-.573-1.381-.984-2.313-1.219-.466-.118-.977-.198-1.5-.219m-1 .812c.749-.035 1.443.014 2.063.188.826.232 1.516.625 2.063 1.156.546.531.924 1.179 1.156 1.969.233.789.292 1.687.156 2.656-.148 1.053-.497 2.033-1 2.937-.503.904-1.105 1.688-1.844 2.375-.739.687-1.588 1.25-2.5 1.688-.912.438-1.821.717-2.781.844-.156.021-.336.047-.531.062-.196.016-.414.001-.625 0l1.906-13.594c.228-.065.458-.12.656-.156.199-.037.351-.043.5-.062.264-.035.532-.051.781-.062m-17.656 1.656c-.523-.02-1.076.017-1.656.094-1.183.157-2.29.492-3.344 1-1.054.508-2.02 1.142-2.844 1.906-.826.764-1.491 1.63-2.031 2.594-.54.964-.881 1.988-1.031 3.062-.169 1.208-.112 2.248.188 3.156.3.908.765 1.67 1.406 2.25.642.58 1.443.987 2.375 1.219.932.232 1.937.27 3.03.125.774-.102 1.523-.27 2.25-.531.727-.262 1.416-.608 2.063-1 .647-.392 1.23-.826 1.781-1.344.551-.517 1.043-1.104 1.469-1.719.426-.615.778-1.266 1.063-1.969.285-.703.487-1.429.594-2.188.159-1.138.114-2.147-.156-3.03-.27-.884-.723-1.615-1.344-2.188-.621-.573-1.413-.984-2.344-1.219-.466-.118-.946-.198-1.469-.219m-1 .812c.749-.035 1.412.014 2.031.188.826.232 1.516.625 2.063 1.156.546.531.955 1.179 1.188 1.969.233.789.261 1.687.125 2.656-.148 1.053-.466 2.034-.969 2.938-.503.904-1.105 1.688-1.844 2.375-.739.687-1.588 1.25-2.5 1.688-.912.438-1.853.717-2.813.844-.156.021-.304.047-.5.062-.196.015-.414.001-.625 0l1.906-13.594c.228-.065.426-.12.625-.156.199-.037.382-.043.531-.062.264-.035.532-.051.781-.062" fill="#fed38f" transform="translate(0-990.36)"/></svg>