<svg xmlns="http://www.w3.org/2000/svg" viewBox="0 0 184 62"><path d="m161.25 14.344c-.082.011-.188.047-.281.063-.094.016-.201.037-.344.063-.09.019-.205.017-.313.031-.108.014-.226.043-.375.063l-8.406 1.094-2.094 14.906 9.438-1.25c.402-.053.697-.13.875-.25.177-.12.295-.249.313-.375.018-.126-.012-.216-.094-.281-.082-.065-.244-.088-.438-.063-.052.007-.116.018-.188.031-.071.013-.166.04-.313.094-.144.04-.341.082-.563.125-.221.043-.484.086-.781.125l-2.438.344 1.313-9.406 2.281-.313c.126-.017.213-.025.313-.031.099-.006.2.004.281 0 .119-.016.215-.026.281-.031.066-.005.121-.022.188-.031.193-.026.378-.068.5-.156.122-.088.167-.228.188-.375.019-.133-.02-.223-.125-.281-.105-.058-.243-.084-.406-.063-.104.014-.171.045-.25.063-.079.017-.2.041-.313.063-.09.019-.178.041-.313.063-.134.021-.314.038-.5.063l-2.031.25.469-3.188 2.469-.344c.298-.039.533-.051.75-.063.217-.011.394-.009.531 0 .137.009.243.002.313 0 .07-.002.135-.024.188-.031.193-.026.33-.073.438-.188.107-.114.171-.224.188-.344.02-.14-.027-.247-.156-.313-.13-.066-.318-.099-.594-.063m-43.781 1.656c-.057.008-.155.046-.25.063-.095.017-.221.034-.406.094-.174.049-.405.128-.688.188-.283.059-.621.106-1 .156l-12.656 1.656c-.275.036-.53.101-.719.156-.189.056-.325.116-.438.188-.112.072-.197.137-.25.219-.053.082-.081.192-.094.281-.021.152.026.256.125.344.099.088.276.128.531.094.057-.008.123-.041.219-.063.096-.021.243-.064.438-.125.166-.057.4-.096.688-.156.287-.06.609-.109.969-.156l2.125-.281-2.531 18 7.281-.969 2.531-18 3.281-.438c.275-.036.508-.102.688-.156.18-.054.326-.089.438-.156.112-.067.197-.168.25-.25.053-.082.081-.161.094-.25.021-.152-.025-.26-.125-.344-.1-.083-.254-.126-.5-.094m26.06.844c-.259 0-.561.033-.938.063-.377.029-.849.058-1.406.125-.557.067-1.269.168-2.125.281l-4.281.563-2.063 14.906 5.688-.75 1.969-14.12.938-.125c.692-.092 1.34-.154 1.906-.156.566-.003 1.05.036 1.469.125.504.106.953.29 1.344.5.39.21.692.452.938.781.246.329.414.73.5 1.188.086.457.075.994-.031 1.594-.124.726-.343 1.4-.688 2.031-.344.631-.771 1.2-1.281 1.688-.51.488-1.107.872-1.75 1.188-.643.316-1.317.53-2.031.625-.074.001-.157.022-.25.031-.093.009-.169.027-.25.031-.073.003-.141-.007-.219 0-.078.007-.161.019-.25.031-.201.027-.37.091-.5.188-.13.097-.201.217-.219.344-.024.169.012.277.156.344.144.067.393.079.75.031.283-.037.688-.122 1.188-.25.866-.239 1.658-.571 2.375-1 .717-.429 1.341-.923 1.875-1.5.534-.577.965-1.233 1.313-1.938.347-.704.585-1.453.719-2.25.101-.613.099-1.188-.031-1.719-.13-.531-.369-.977-.719-1.375-.35-.398-.791-.749-1.344-1-.553-.251-1.223-.391-1.969-.438-.261-.014-.522-.031-.781-.031m-11.5 1.281c-.246.033-.464.241-.656.625-.07.133-.191.319-.313.531-.121.212-.248.446-.406.688l-3.531 5.156-2.313-5.938-6.5.875 5.03 10.594-.719 1.031c-.256.365-.457.659-.656.906-.199.247-.39.468-.563.656-.164.18-.282.336-.344.438-.062.101-.109.2-.125.313-.02.14.02.24.094.313.074.073.164.113.313.094.179-.024.337-.08.469-.188.132-.107.284-.273.406-.469.038-.06.06-.131.094-.188.033-.056.095-.121.156-.219.061-.098.117-.224.219-.375.102-.151.24-.344.406-.594l8.594-12.563c.148-.219.247-.419.344-.563.097-.144.169-.251.219-.344.049-.093.102-.161.125-.219.023-.058.023-.131.031-.188.04-.288-.07-.415-.375-.375m-40.531 5.375c-.134.018-.27.06-.375.156-.105.097-.162.255-.188.438-.016.112-.029.212-.031.281-.002.069.004.15 0 .281-.0001.11-.018.267-.031.438-.013.171-.051.386-.094.688l-.875 6.281-10.844-7.469-1.844 13.09c-.053.379-.112.704-.156.969-.044.264-.086.471-.125.594-.031.114-.062.215-.094.313-.032.097-.052.173-.063.25-.02.14.001.265.094.344.084.078.195.113.344.094.141-.019.288-.107.406-.219.118-.112.193-.255.219-.438.008-.056.021-.121.031-.219.001-.098.019-.236.031-.375.012-.139.008-.269.031-.438l.094-.531.875-6.375 10.875 7.375 1.875-13.219c.049-.351.061-.598.094-.781.033-.184.069-.341.094-.469.021-.099.051-.2.063-.281.011-.081.014-.186.031-.313.028-.197.001-.337-.094-.406-.104-.069-.217-.079-.344-.063m-52.813 2.969c-.18.024-.314.102-.438.219-.123.117-.221.263-.25.469-.013.089.003.194 0 .313-.003.119-.029.257-.031.406-.002.149-.004.335-.031.563-.027.227-.069.535-.125.938l-.313 2.344c-.285.047-.643.105-1.031.156-.388.051-.823.087-1.344.156l-4.781.656.688-5.063-7.25.969-2.656 18.969 7.25-.969 1.813-12.938 7.156-.938-1.375 9.781c-.068.483-.136.883-.188 1.219-.052.336-.075.594-.125.75-.118.314-.194.54-.219.719-.025.179.0001.336.094.438.093.102.217.119.406.094.18-.024.372-.106.531-.25.16-.144.249-.33.281-.563.018-.125.018-.274.031-.469.013-.195.07-.482.125-.875l1.531-11c.105-.023.212-.045.313-.063.1-.018.206-.062.313-.094.593-.122.92-.339.969-.688.021-.152-.025-.265-.125-.344-.101-.079-.236-.116-.406-.094-.123.016-.235.039-.313.063-.078.023-.141.035-.219.063-.05.024-.125.05-.188.063-.062.013-.111.012-.188.031l.375-2.719c.043-.304.065-.544.094-.719.029-.175.068-.32.094-.438.024-.108.047-.173.063-.25.015-.077.015-.196.031-.313.035-.25.011-.413-.125-.5-.137-.087-.295-.113-.438-.094m31.31.063c-.217.012-.464.039-.719.063-.255.023-.549.057-.875.094-.326.036-.673.069-1.094.125-.42.056-.926.116-1.469.188l-3.75.5-2.094 14.906 5.688-.75 1.969-14.12c.12-.023.254-.042.406-.063.153-.02.33-.067.531-.094.513-.068.998-.102 1.406-.125.409-.023.771-.009 1.094.031.582.068 1.104.184 1.563.375.459.191.826.435 1.125.75.299.315.501.711.625 1.156.124.445.144.948.063 1.531-.091.646-.271 1.26-.594 1.844-.323.584-.734 1.102-1.219 1.563-.484.46-1.02.852-1.625 1.156-.605.304-1.259.508-1.906.594-.074.001-.128.027-.188.031-.059.004-.129-.0001-.188 0-.08-.003-.138-.004-.219 0-.081.004-.201.016-.313.031-.26.034-.452.086-.594.188-.142.102-.231.242-.25.375-.016.112.032.19.125.281.093.091.296.133.594.094.045-.006.08-.022.125-.031.045-.009.08-.025.125-.031.038-.012.084-.022.125-.031.041-.009.088.005.125 0 .119-.016.213-.023.25 0 .037.023.058.075.094.188.025.079.062.172.094.281.032.109.069.266.125.438.21.689.451 1.237.75 1.656.299.419.658.719 1.063.906.265.144.567.239.875.281.308.042.609.039.906 0 .446-.059.779-.148 1.031-.281.252-.133.414-.269.438-.438.037-.267-.1-.38-.375-.344-.06.008-.126.009-.188.031-.062.022-.126.054-.219.094-.087.046-.161.093-.25.125-.089.032-.183.054-.25.063-.327.043-.631.014-.938-.063-.307-.077-.607-.222-.875-.469-.268-.247-.501-.609-.719-1.063-.218-.454-.413-1.046-.563-1.75.757-.245 1.459-.557 2.094-.969.635-.411 1.182-.885 1.656-1.406.475-.521.857-1.09 1.156-1.688.299-.598.506-1.187.594-1.813.092-.653.039-1.255-.125-1.781-.164-.526-.414-.965-.781-1.344-.367-.379-.829-.689-1.375-.906-.547-.217-1.169-.34-1.844-.375-.211-.007-.397.002-.594 0-.197-.0001-.408-.011-.625 0m-18.25 2.188c-.276.014-.554.024-.844.063-1.183.157-2.322.492-3.375 1-1.054.508-1.986 1.142-2.813 1.906-.826.764-1.491 1.63-2.031 2.594-.54.964-.912 1.988-1.063 3.063-.169 1.208-.081 2.279.219 3.188.3.908.765 1.639 1.406 2.219.642.58 1.412.987 2.344 1.219.932.232 1.969.27 3.063.125.774-.102 1.523-.27 2.25-.531.727-.262 1.416-.577 2.063-.969.647-.392 1.23-.858 1.781-1.375.551-.517 1.043-1.104 1.469-1.719.426-.615.778-1.266 1.063-1.969.285-.703.487-1.429.594-2.188.159-1.138.114-2.147-.156-3.03-.27-.884-.723-1.615-1.344-2.188-.621-.573-1.413-.984-2.344-1.219-.698-.176-1.454-.23-2.281-.188m-.188.781c.749-.035 1.412.045 2.031.219.826.232 1.516.594 2.063 1.125.546.531.955 1.179 1.188 1.969.233.789.261 1.687.125 2.656-.148 1.053-.466 2.034-.969 2.938-.503.904-1.136 1.688-1.875 2.375-.739.687-1.557 1.25-2.469 1.688-.912.438-1.853.717-2.813.844-.156.021-.336.047-.531.063-.196.016-.383.007-.594 0l1.906-13.563c.228-.065.426-.12.625-.156.199-.037.382-.074.531-.094.264-.035.532-.051.781-.063" fill="#fed38f"/></svg>