<svg xmlns="http://www.w3.org/2000/svg" viewBox="0 0 184 62"><path d="m147.37 1006.71l-5.688.75-2.094 14.906 9.06-1.219c.409-.054.701-.13.875-.25.174-.12.264-.249.281-.375.024-.168-.004-.283-.094-.344-.09-.061-.244-.057-.438-.031-.045.001-.107.02-.219.062-.112.042-.254.077-.406.125-.13.045-.282.101-.469.156-.187.056-.429.118-.719.156l-2.094.25 2-14.188m-15.719 1.406l-7.344 13.5h-.094c-.181-.001-.32-.001-.438 0-.118.001-.213 0-.25 0-.156.021-.292.069-.406.156-.115.088-.168.203-.188.344-.017.119.009.237.094.313.084.075.208.088.375.094.058.001.122.033.188.031.066 0 .138-.027.219-.031-.146.261-.263.479-.375.656-.112.177-.222.346-.313.469-.123.147-.212.269-.281.375-.07.106-.115.18-.125.25-.017.119.016.209.094.281.078.072.171.112.313.094.171-.023.346-.099.469-.219.123-.12.244-.332.406-.656.072-.147.191-.319.313-.531.121-.212.239-.477.406-.781.333-.03.742-.069 1.188-.125.446-.055.961-.135 1.594-.219l3.125-.406.688 1.75 5.813-.781-5.469-14.563m-9.219 1.781c-.171.023-.296.08-.406.188-.11.108-.194.231-.219.406-.015.105-.005.319 0 .594-.006.097-.02.215-.031.344-.011.129-.011.259-.031.406l-.813 5.719c-.178 1.216-.5 2.251-.938 3.156-.437.906-.949 1.69-1.563 2.313-.613.622-1.284 1.115-2.031 1.469-.747.354-1.516.582-2.313.688-.089.012-.21.017-.344.031-.133.014-.283.021-.438.031-.155.001-.307.024-.469.031-.162.001-.315 0-.469 0l2-14.219-5.719.781-1.156 8.281c-.129.92-.119 1.777.063 2.563.182.786.527 1.457 1.031 2 .504.543 1.19.909 2.031 1.156.842.247 1.864.315 3.063.156 1.094-.145 2.084-.472 3-.938.916-.466 1.74-1.044 2.438-1.75.698-.706 1.27-1.499 1.719-2.406.448-.907.731-1.881.875-2.906l.906-6.313c.037-.267.065-.511.125-.781.021-.099.044-.203.063-.281.018-.078.051-.166.063-.25.021-.148 0-.273-.063-.375-.062-.102-.204-.116-.375-.094m-21.19 2.751c-.212.011-.44.034-.656.062-.885.117-1.668.325-2.375.625-.707.3-1.305.644-1.813 1.063-.508.419-.917.898-1.219 1.406-.301.509-.487 1.022-.563 1.563-.062.442-.063.865 0 1.25.063.385.187.761.406 1.125.219.364.543.729.938 1.094.394.365.892.754 1.5 1.156.555.368 1.01.663 1.406.938.396.275.734.541 1 .75.266.209.472.376.625.531.153.156.271.306.344.438.073.132.112.256.125.375.013.119.018.249 0 .375-.031.225-.129.422-.281.625-.153.203-.34.395-.594.563-.254.168-.557.315-.906.438-.349.122-.732.225-1.156.281-.417.055-.833.07-1.219.062-.386-.001-.752-.06-1.094-.125-.341-.065-.655-.132-.938-.25-.283-.118-.515-.278-.719-.438-.137-.12-.261-.185-.344-.219-.083-.034-.186-.048-.313-.031-.149.02-.254.065-.344.156-.089.091-.14.224-.156.344-.032.232.019.402.188.531.168.129.384.238.625.344.508.229 1.118.395 1.813.469.694.074 1.446.044 2.25-.062.885-.117 1.693-.333 2.469-.656.776-.323 1.462-.74 2.063-1.219.6-.479 1.088-1.02 1.469-1.625.381-.605.622-1.249.719-1.938.058-.414.072-.8.031-1.188-.041-.388-.177-.788-.438-1.219-.261-.431-.674-.924-1.219-1.438-.545-.514-1.275-1.082-2.219-1.75-.478-.343-.879-.639-1.156-.875-.277-.236-.461-.453-.594-.625-.133-.172-.224-.31-.25-.438-.026-.128-.018-.249 0-.375.042-.302.192-.586.469-.813.276-.226.658-.371 1.156-.438.372-.049.731-.07 1.063-.062.331.001.629.041.906.094.277.053.539.133.75.219.211.086.37.168.5.281.113.082.209.159.281.188.073.028.146.014.25 0 .126-.017.254-.065.344-.156.089-.091.139-.193.156-.313.028-.197-.086-.375-.313-.531-.226-.156-.609-.293-1.188-.438-.34-.072-.738-.111-1.156-.125-.209-.001-.413-.011-.625 0m-9.656 1.312c-.171.023-.296.08-.406.188-.11.108-.194.262-.219.438-.015.105-.005.288 0 .563-.006.097-.02.215-.031.344-.011.129-.042.259-.063.406l-.781 5.719c-.178 1.216-.5 2.282-.938 3.188-.437.906-.949 1.659-1.563 2.281-.613.622-1.284 1.115-2.031 1.469-.747.354-1.548.582-2.344.688-.089.012-.179.017-.313.031-.133.014-.283.052-.438.062-.155.001-.307-.001-.469 0-.162.001-.315.032-.469.031l1.969-14.219-5.688.75-1.156 8.312c-.129.92-.119 1.745.063 2.531.182.786.527 1.457 1.031 2 .504.543 1.19.94 2.031 1.188.842.247 1.864.284 3.063.125 1.094-.145 2.084-.44 3-.906.916-.466 1.74-1.044 2.438-1.75.698-.706 1.27-1.53 1.719-2.438.448-.907.731-1.85.875-2.875l.875-6.313c.037-.267.097-.543.156-.813.021-.099.044-.172.063-.25.018-.078.019-.166.031-.25.021-.147 0-.273-.063-.375-.062-.102-.173-.148-.344-.125zm-34.688.563c-.218.029-.391.113-.531.25-.14.137-.25.339-.281.563-.019.134-.007.369 0 .719-.008.124-.018.273-.031.438-.014.164-.036.344-.063.531l-1.031 7.25c-.226 1.547-.6 2.91-1.156 4.063-.557 1.153-1.251 2.114-2.031 2.906-.78.792-1.643 1.425-2.594 1.875-.951.45-1.924.741-2.938.875-.114.015-.268.013-.438.031-.17.018-.334.05-.531.062-.197.013-.388.022-.594.031-.206.001-.43.0001-.625 0l2.531-18.06-7.25.938-1.469 10.563c-.164 1.171-.138 2.25.094 3.25.232 1 .67 1.84 1.313 2.531.642.691 1.491 1.217 2.563 1.531 1.071.314 2.381.358 3.906.156 1.392-.184 2.678-.563 3.844-1.156 1.166-.593 2.174-1.352 3.063-2.25.888-.898 1.617-1.908 2.188-3.063.571-1.155.942-2.383 1.125-3.688l1.125-8.03c.048-.34.111-.688.188-1.031.027-.126.07-.244.094-.344.023-.1.047-.174.063-.281.026-.188-.014-.37-.094-.5-.079-.13-.22-.185-.438-.156zm71.47 1.156l2 5.313-3.281.438c-.216.029-.492.061-.844.094-.351.033-.709.043-1.063.062l3.188-5.906m-54.688.656c-.134.018-.27.091-.375.188-.105.097-.162.224-.188.406-.016.112-.029.212-.031.281-.002.069.004.15 0 .281-.0001.11-.018.267-.031.438-.013.171-.051.385-.094.688l-.875 6.281-10.844-7.469-1.844 13.13c-.053.379-.112.673-.156.938-.044.264-.086.471-.125.594-.031.114-.062.215-.094.313-.032.097-.052.204-.063.281-.02.14.001.234.094.313.084.079.195.113.344.094.141-.019.288-.075.406-.188.118-.112.193-.286.219-.469.008-.056.021-.121.031-.219.001-.098.019-.204.031-.344.012-.139.008-.3.031-.469l.094-.531.875-6.375 10.875 7.375 1.875-13.188c.049-.351.061-.629.094-.813.033-.184.069-.341.094-.469.021-.099.051-.2.063-.281.011-.081.014-.186.031-.313.028-.197.001-.306-.094-.375-.104-.069-.217-.111-.344-.094" fill="#fed38f" transform="translate(0-990.36)"/></svg>