<svg xmlns="http://www.w3.org/2000/svg" viewBox="0 0 184 62"><path d="m140.53 1007.86l-5.688.75-2.094 14.906 9.06-1.188c.409-.054.701-.13.875-.25.174-.12.264-.249.281-.375.024-.168-.004-.283-.094-.344-.09-.061-.244-.088-.438-.062-.045.001-.107.02-.219.062-.112.042-.254.109-.406.156-.13.045-.282.101-.469.156-.187.056-.429.087-.719.125l-2.094.281 2-14.219m-15.719 1.406l-7.344 13.531-.094-.031c-.181-.011-.32-.001-.438 0-.118.001-.213.026-.25.031-.156.021-.292.069-.406.156-.115.088-.168.203-.188.344-.017.119.009.206.094.281.084.075.208.12.375.125.058.001.122 0 .188 0 .066 0 .138 0 .219 0-.146.261-.263.479-.375.656-.112.177-.222.315-.313.438-.123.147-.212.269-.281.375-.07.106-.115.211-.125.281-.017.119.016.209.094.281.078.072.171.112.313.094.171-.023.315-.099.438-.219.123-.12.275-.363.438-.688.072-.147.16-.319.281-.531.121-.212.271-.477.438-.781.333-.03.71-.07 1.156-.125.446-.056.993-.135 1.625-.219l3.125-.406.656 1.75 5.844-.75-5.469-14.594m-8.03 1.593c-.045.001-.113.018-.188.031-.075.013-.167.047-.313.094-.137.039-.309.078-.531.125-.222.047-.484.086-.781.125l-9.969 1.344c-.216.029-.414.05-.563.094-.149.044-.255.1-.344.156-.088.056-.146.123-.188.188-.042.064-.084.117-.094.188-.017.119.016.212.094.281.078.069.237.089.438.062.045-.001.081-.014.156-.031.075-.017.191-.046.344-.094.13-.045.337-.078.563-.125.226-.047.467-.119.75-.156l1.688-.219-2 14.156 5.719-.75 1.969-14.156 2.594-.344c.216-.029.39-.051.531-.094.141-.043.256-.103.344-.156.088-.053.177-.092.219-.156.042-.064.053-.149.063-.219.017-.119-.015-.216-.094-.281-.079-.065-.213-.088-.406-.062m-18.06 2.438c-.418-.014-.818.037-1.25.094-.885.117-1.7.325-2.406.625-.707.3-1.305.644-1.813 1.063-.508.419-.917.898-1.219 1.406-.301.509-.487 1.022-.563 1.563-.062.442-.063.865 0 1.25.063.385.218.761.438 1.125.219.364.512.729.906 1.094.394.365.892.723 1.5 1.125.555.368 1.042.694 1.438.969.396.275.734.509 1 .719.266.209.472.407.625.563.153.156.271.306.344.438.073.132.112.256.125.375.013.119-.014.249-.031.375-.032.225-.097.422-.25.625-.153.203-.371.395-.625.563-.254.168-.557.315-.906.438-.349.122-.732.194-1.156.25-.417.055-.801.101-1.188.094-.386-.001-.752-.06-1.094-.125-.341-.065-.655-.164-.938-.281-.283-.118-.546-.247-.75-.406-.137-.12-.23-.185-.313-.219-.083-.034-.186-.048-.313-.031-.149.02-.286.065-.375.156-.089.091-.14.193-.156.313-.032.232.051.433.219.563.168.129.353.238.594.344.508.229 1.118.364 1.813.438.694.073 1.446.075 2.25-.031.885-.117 1.724-.333 2.5-.656.776-.323 1.462-.74 2.063-1.219.6-.479 1.088-1.02 1.469-1.625.381-.605.622-1.249.719-1.938.058-.414.041-.8 0-1.188-.041-.388-.177-.819-.438-1.25-.261-.431-.674-.893-1.219-1.406-.545-.514-1.275-1.114-2.219-1.781-.478-.343-.848-.608-1.125-.844-.277-.236-.492-.453-.625-.625-.133-.172-.224-.31-.25-.438-.026-.128-.018-.28 0-.406.042-.302.192-.555.469-.781.276-.226.658-.371 1.156-.438.372-.049.731-.07 1.063-.062.331.001.629.041.906.094.277.053.539.133.75.219.211.086.37.168.5.281.113.082.209.128.281.156.073.028.177.045.281.031.126-.017.223-.065.313-.156.089-.091.139-.193.156-.313.028-.197-.086-.375-.313-.531-.226-.156-.609-.293-1.188-.438-.34-.072-.738-.143-1.156-.156zm-8.938 1.156c-.246.032-.464.241-.656.625-.07.133-.16.319-.281.531-.121.212-.28.446-.438.688l-3.531 5.156-2.281-5.938-6.5.875 5 10.594-.688 1.031c-.256.365-.489.659-.688.906-.199.247-.39.468-.563.656-.164.18-.282.336-.344.438-.062.101-.078.2-.094.313-.02.14-.011.24.063.313.074.073.195.113.344.094.179-.024.337-.081.469-.188.132-.107.253-.273.375-.469.038-.06.06-.1.094-.156.033-.056.095-.152.156-.25.061-.098.148-.224.25-.375.102-.151.24-.344.406-.594l8.563-12.563c.148-.219.278-.419.375-.563.097-.144.169-.251.219-.344.049-.093.071-.161.094-.219.023-.058.055-.131.063-.188.04-.288-.101-.415-.406-.375m-36.969.844c-.421.016-.843.071-1.25.125-1.572.208-3.063.635-4.469 1.281-1.406.647-2.647 1.436-3.75 2.406-1.103.971-2.026 2.095-2.75 3.344-.724 1.249-1.178 2.566-1.375 3.969-.203 1.448-.128 2.732.219 3.875.346 1.143.926 2.089 1.75 2.844.824.755 1.884 1.315 3.156 1.625 1.272.31 2.727.343 4.375.125.597-.079 1.202-.207 1.844-.375.642-.168 1.262-.359 1.844-.594.472-.185.942-.429 1.406-.688.464-.259.955-.558 1.469-.906.402-.281.66-.496.813-.688.152-.191.26-.379.281-.531.023-.161-.017-.294-.094-.406-.077-.113-.207-.151-.406-.125-.161.021-.302.082-.438.188-.136.106-.353.303-.594.563-.36.381-.768.708-1.25 1-.482.292-1 .539-1.531.75-.531.211-1.055.367-1.594.5-.539.133-1.048.249-1.531.313-.227.03-.494.047-.813.062-.318.016-.645.001-.969 0l2.406-17.188c.282-.09.561-.155.844-.219.283-.064.606-.112.938-.156.492-.065.997-.098 1.531-.094.534 0 1.05.044 1.531.125.481.081.92.194 1.313.344.393.15.665.336.875.563.114.117.246.21.375.25.129.04.24.045.344.031.189-.025.364-.109.5-.25.136-.141.226-.299.25-.469.025-.179-.102-.384-.375-.594-.273-.21-.796-.424-1.563-.656-.276-.086-.583-.16-.938-.219-.354-.058-.755-.104-1.156-.125-.401-.022-.798-.016-1.219 0zm68.72 1.531l2 5.313-3.281.438c-.216.029-.492.061-.844.094-.351.033-.709.043-1.063.062l3.188-5.906m-52.53.563c-.217.011-.464.039-.719.062-.255.024-.549.058-.875.094-.326.036-.705.069-1.125.125-.42.056-.894.147-1.438.219l-3.781.5-2.063 14.875 5.688-.75 1.969-14.12c.12-.023.254-.042.406-.062.153-.02.33-.036.531-.062.513-.068.998-.133 1.406-.156.409-.023.771-.001 1.094.031.582.068 1.104.215 1.563.406.459.191.826.435 1.125.75.299.315.501.68.625 1.125.124.445.144.98.063 1.563-.091.646-.302 1.26-.625 1.844-.323.584-.703 1.102-1.188 1.562-.484.46-1.051.852-1.656 1.156-.605.304-1.228.477-1.875.563-.074.001-.128.027-.188.031-.059 0-.129-.0001-.188 0-.08 0-.138 0-.219 0-.081 0-.201.017-.313.031-.26.034-.452.117-.594.219-.142.101-.231.21-.25.344-.016.112.032.221.125.313.093.091.296.102.594.062.045-.001.08-.022.125-.031.045-.001.08.001.125 0 .038-.012.084-.022.125-.031.041-.001.088-.026.125-.031.119-.016.182-.023.219 0 .037.023.09.106.125.219.025.079.062.172.094.281.032.11.069.235.125.406.21.689.451 1.269.75 1.688.299.419.658.718 1.063.906.265.144.567.239.875.281.308.042.609.039.906 0 .446-.059.779-.148 1.031-.281.252-.133.383-.3.406-.469.037-.267-.068-.38-.344-.344-.06.001-.126.001-.188.031-.062.022-.126.054-.219.094-.087.046-.193.093-.281.125-.089.032-.152.054-.219.062-.327.043-.631.045-.938-.031-.307-.077-.607-.253-.875-.5-.268-.247-.501-.609-.719-1.063-.218-.454-.413-1.015-.563-1.719.757-.245 1.459-.589 2.094-1 .635-.411 1.182-.854 1.656-1.375.475-.521.857-1.09 1.156-1.688.299-.598.506-1.219.594-1.844.092-.653.039-1.224-.125-1.75-.164-.526-.414-.996-.781-1.375-.367-.379-.829-.689-1.375-.906-.547-.217-1.169-.34-1.844-.375-.211-.001-.397 0-.594 0-.197 0-.408-.011-.625 0" fill="#fed38f" transform="translate(0-990.36)"/></svg>