<svg xmlns="http://www.w3.org/2000/svg" xmlns:xlink="http://www.w3.org/1999/xlink" viewBox="0 0 237.542 123.324" enable-background="new 0 0 237.542 123.324"><defs><path id="1" d="m201.49 60.727l-13.161 2.6v-6.475l-175.25 32.973v30.499h61.08 114.17 12.782c11 0 20-9 20-20v-23.472c0-11-8.829-18.257-19.621-16.13"/><clipPath id="0"><use xlink:href="#1"/></clipPath></defs><g fill="#331f26"><path d="m40.792 109.86h-40.792v-21.05z"/><path d="m196.75 49.32h40.79v21.06z"/></g><g fill="#ecbb44"><path d="m174.74 123.32h-166.95v-30.49l166.95-32.979z"/><path d="m229.74 103.32c0 11-9 20-20 20h-126.95c-11 0-20-6.862-20-15.25 0-8.387 8.83-16.993 19.621-19.12l127.71-25.22c10.792-2.132 19.621 5.125 19.621 16.12v23.473"/></g><path fill="#45171a" d="m13.248 63.48v16.463c0 0 181.11 0 198.72 0s9.195-7.685 9.195-7.685l.125-31.641-208.04 22.863"/><g fill="#331f26"><path d="m201.49 60.727l-13.161 2.6v-6.475l-175.25 32.973v30.499h61.08 114.17 12.782c11 0 20-9 20-20v-23.472c0-11-8.829-18.257-19.621-16.13"/><path d="m20.396 82.82h180.26v34.702h-180.26z"/></g><g clip-path="url(#0)"><g fill="#f4cd88"><path d="m67.54 103.75l157.34-8.6v-4z"/><path d="m224.88 102.03v-4l-157.34 12.61z"/><path d="m224.88 108.92v-4l-157.34 12.61z"/></g></g><path fill="#872e20" d="m0 73.69v36l237.54-24.37v-36z"/><g fill="#45171a"><path d="m75.879 74.61c-.635-.652-1.407-1.176-2.317-1.566-.91-.392-1.915-.632-3.01-.724-.344-.021-.675-.038-.996-.05-.32-.013-.655-.015-1.01-.006-.352.001-.733.027-1.145.054-.412.027-.881.063-1.407.107-.527.047-1.128.105-1.805.178-.677.073-1.453.156-2.327.251l-6.074.653-1.841 24.914 9.165-.986 1.746-23.629c.192-.032.411-.062.657-.089.245-.025.53-.057.853-.092.827-.088 1.571-.142 2.231-.161.661-.02 1.256.014 1.785.096.952.143 1.811.385 2.575.728s1.407.786 1.925 1.329c.518.545.901 1.193 1.148 1.947.249.753.335 1.617.264 2.591-.08 1.08-.351 2.103-.814 3.066-.464.964-1.065 1.82-1.803 2.569-.739.749-1.584 1.364-2.535 1.846-.95.48-1.946.776-2.989.889-.12.014-.228.021-.322.025-.096.005-.191.007-.286.005-.13-.009-.26-.013-.392-.011-.13.003-.286.014-.466.034-.418.045-.739.148-.958.312-.221.164-.338.357-.354.58-.015.188.059.36.22.519.16.157.48.21.96.158.071-.008.144-.019.216-.032.073-.013.145-.023.217-.032.06-.018.124-.033.19-.046.066-.014.129-.023.189-.03.191-.02.318-.011.381.029.062.04.128.155.197.347.05.134.106.293.17.479s.15.423.26.714c.413 1.167.883 2.109 1.413 2.827.53.717 1.133 1.243 1.81 1.578.444.255.919.425 1.424.51.504.086.997.103 1.476.052.719-.078 1.276-.224 1.672-.435s.604-.458.625-.74c.032-.445-.172-.645-.616-.597-.096.011-.193.033-.29.066-.099.033-.221.082-.368.144-.136.073-.274.135-.415.185s-.264.082-.372.093c-.527.057-1.045.014-1.551-.13-.506-.144-.991-.43-1.452-.856-.462-.428-.893-1.028-1.293-1.8-.401-.772-.759-1.752-1.075-2.94 1.204-.375 2.3-.892 3.287-1.552.988-.659 1.84-1.414 2.557-2.266.716-.852 1.287-1.771 1.71-2.761.423-.989.673-2.01.751-3.05.081-1.093-.04-2.084-.36-2.975-.319-.892-.797-1.663-1.432-2.319"/><path d="m100.73 78.13c-.283-.511-.651-.946-1.106-1.305-.454-.359-.994-.661-1.618-.909-.751-.292-1.699-.483-2.845-.576-1.146-.091-2.372-.066-3.678.073-1.09.118-2.139.312-3.146.584-1.01.271-1.939.604-2.801 1-.48.227-.87.432-1.169.615-.298.183-.537.354-.714.514-.178.158-.302.309-.373.45-.07.142-.11.277-.119.405-.015.2.045.359.178.479.134.119.327.165.579.138.131-.014.283-.068.457-.162.173-.095.349-.228.529-.398.319-.301.705-.578 1.158-.832.451-.251.941-.476 1.466-.673.526-.196 1.079-.36 1.659-.493s1.152-.229 1.715-.289c.539-.059 1.092-.076 1.662-.057.568.021 1.099.074 1.592.16l-.356 4.842c-.743-.246-1.528-.403-2.355-.472-.826-.068-1.635-.06-2.426.026-1.307.14-2.5.438-3.579.892s-2.01 1.023-2.8 1.707c-.788.685-1.412 1.462-1.875 2.334-.462.87-.729 1.793-.801 2.767-.084 1.139.045 2.123.388 2.953.342.832.86 1.506 1.553 2.025.692.52 1.534.88 2.523 1.082.988.202 2.094.238 3.317.106.898-.097 1.775-.306 2.631-.624.855-.319 1.716-.794 2.583-1.422l-.086 1.162 7.691-.828.815-11.04c.069-.928.048-1.737-.062-2.431-.108-.691-.304-1.293-.587-1.803m-7.66 13.427c-.871.699-1.719 1.225-2.541 1.574-.823.351-1.611.566-2.366.648-.072.008-.144.016-.215.022-.072.008-.138.001-.196.004l.827-11.197c.218-.059.447-.102.687-.127.719-.077 1.446-.071 2.182.018.736.091 1.485.28 2.25.57l-.628 8.488"/><path d="m121.12 73.28c-.727-.282-1.489-.469-2.285-.557-.796-.089-1.589-.091-2.38-.006-1.642.177-3.127.593-4.46 1.249-1.332.655-2.48 1.47-3.442 2.439-.964.972-1.724 2.063-2.284 3.277-.559 1.213-.886 2.465-.981 3.756-.107 1.444.041 2.743.443 3.9.401 1.155 1.017 2.12 1.845 2.893.829.772 1.856 1.334 3.084 1.686 1.228.351 2.615.442 4.16.276.863-.093 1.711-.286 2.548-.58.835-.293 1.666-.712 2.49-1.255l-.071.969 7.403-.797 1.84-24.915-7.403.797-.507 6.868m-1.148 15.53c-.792.598-1.603 1.068-2.43 1.414-.828.346-1.644.561-2.446.647-.229.024-.464.041-.708.051-.245.009-.473.007-.687-.005l1.234-16.692c.169-.041.345-.077.524-.108.181-.03.361-.057.541-.076.863-.093 1.712-.076 2.547.05.834.125 1.653.378 2.458.757l-1.033 13.962"/><path d="m133.07 89.9l7.73-.83 1.39-18.81-7.73.84z"/><path d="m141.99 62.53c-.32-.246-.723-.429-1.207-.552-.484-.122-1.049-.149-1.696-.079-.611.065-1.174.202-1.688.409-.514.207-.964.456-1.348.748-.384.292-.69.612-.918.962-.228.352-.355.708-.382 1.072-.065.88.23 1.553.885 2.02.655.464 1.629.627 2.923.488.587-.063 1.138-.192 1.651-.388.514-.195.965-.436 1.355-.722.389-.287.701-.608.935-.966.235-.357.366-.724.394-1.099.026-.353-.038-.695-.192-1.027-.154-.331-.391-.62-.712-.865"/><path d="m163.97 70.43c-.815-.779-1.83-1.357-3.045-1.733-1.213-.376-2.6-.48-4.156-.312-1.486.159-2.879.552-4.179 1.175s-2.44 1.412-3.419 2.367c-.98.956-1.773 2.04-2.38 3.252-.606 1.213-.96 2.494-1.059 3.844-.109 1.479.054 2.801.492 3.965.437 1.164 1.084 2.134 1.941 2.908.858.775 1.893 1.333 3.104 1.675 1.211.341 2.541.434 3.99.277 1.546-.166 2.963-.575 4.254-1.227 1.289-.651 2.414-1.468 3.371-2.45.958-.982 1.724-2.092 2.297-3.33.572-1.238.908-2.532 1.01-3.882.098-1.326-.044-2.551-.424-3.675-.381-1.123-.979-2.075-1.796-2.854m.76 6.739c-.1 1.338-.423 2.555-.974 3.65s-1.254 2.048-2.11 2.855c-.855.809-1.824 1.457-2.906 1.947-1.082.489-2.199.795-3.348.919-.085.009-.172.019-.262.028s-.182.013-.276.013l1.243-16.833c.084-.021.169-.035.253-.045.083-.009.173-.019.271-.028 1.281-.139 2.439-.063 3.477.229 1.036.289 1.913.763 2.632 1.419.718.656 1.254 1.479 1.608 2.464.354.987.485 2.113.392 3.382"/><path d="m184.45 76.75c-.14-.532-.417-1.07-.835-1.613-.418-.542-1-1.117-1.754-1.724-.752-.605-1.711-1.294-2.878-2.065-.591-.367-1.067-.7-1.433-.999-.364-.298-.647-.563-.852-.79-.203-.229-.339-.43-.409-.603-.071-.173-.101-.33-.09-.471.021-.27.179-.525.476-.767s.799-.4 1.506-.477c.658-.07 1.377-.055 2.154.048.776.103 1.489.341 2.139.713.262.17.469.313.62.431.151.118.323.166.515.145.203-.021.361-.105.473-.251.111-.146.174-.295.186-.449.023-.328-.145-.622-.506-.879-.361-.258-.855-.482-1.483-.67-.268-.077-.566-.14-.896-.192-.329-.052-.68-.087-1.053-.105-.373-.017-.754-.023-1.141-.016-.386.006-.759.029-1.119.068-1.174.126-2.247.381-3.221.766-.973.384-1.813.856-2.52 1.415-.707.56-1.268 1.183-1.68 1.867-.413.686-.647 1.392-.701 2.119-.042.575.013 1.128.164 1.66.15.53.453 1.092.909 1.684.456.591 1.085 1.23 1.89 1.918s1.847 1.476 3.123 2.362c.622.434 1.119.791 1.491 1.071.371.28.656.523.855.729.198.206.324.385.379.536.054.151.075.314.062.491-.012.164-.084.338-.217.521-.133.184-.329.356-.591.518-.262.162-.591.306-.985.43-.396.124-.863.216-1.401.273-.491.053-.983.07-1.476.054s-.963-.07-1.414-.161c-.451-.092-.866-.217-1.247-.373-.38-.157-.706-.344-.976-.559-.156-.134-.296-.253-.419-.356s-.269-.146-.437-.128c-.238.025-.428.119-.563.279-.137.16-.212.328-.225.504-.037.493.388.942 1.273 1.348.321.152.688.278 1.104.379.415.102.852.18 1.311.234.46.056.933.083 1.42.083s.959-.024 1.415-.073c1.341-.145 2.563-.431 3.663-.857 1.102-.427 2.05-.96 2.847-1.599.796-.64 1.426-1.365 1.89-2.179.464-.812.73-1.677.798-2.592.045-.6-.003-1.165-.141-1.698"/></g><g fill="#ffe682"><path d="m73.879 73.61c-.635-.652-1.407-1.176-2.317-1.566-.91-.392-1.915-.632-3.01-.724-.344-.021-.675-.038-.996-.05-.32-.013-.655-.015-1.01-.006-.352.001-.733.027-1.145.054-.412.027-.881.063-1.407.107-.527.047-1.128.105-1.805.178-.677.073-1.453.156-2.327.251l-6.074.653-1.841 24.914 9.165-.986 1.746-23.629c.192-.032.411-.062.657-.089.245-.025.53-.057.853-.092.827-.088 1.571-.142 2.231-.161.661-.02 1.256.014 1.785.096.952.143 1.811.385 2.575.728s1.407.786 1.925 1.329c.518.545.901 1.193 1.148 1.947.249.753.335 1.617.264 2.591-.08 1.08-.351 2.103-.814 3.066-.464.964-1.065 1.82-1.803 2.569-.739.749-1.584 1.364-2.535 1.846-.95.48-1.946.776-2.989.889-.12.014-.228.021-.322.025-.096.005-.191.007-.286.005-.13-.009-.26-.013-.392-.011-.13.003-.286.014-.466.034-.418.045-.739.148-.958.312-.221.164-.338.357-.354.58-.015.188.059.36.22.519.16.157.48.21.96.158.071-.008.144-.019.216-.032.073-.013.145-.023.217-.032.06-.018.124-.033.19-.046.066-.014.129-.023.189-.03.191-.02.318-.011.381.029.062.04.128.155.197.347.05.134.106.293.17.479s.15.423.26.714c.413 1.167.883 2.109 1.413 2.827.53.717 1.133 1.243 1.81 1.578.444.255.919.425 1.424.51.504.086.997.103 1.476.052.719-.078 1.276-.224 1.672-.435s.604-.458.625-.74c.032-.445-.172-.645-.616-.597-.096.011-.193.033-.29.066-.099.033-.221.082-.368.144-.136.073-.274.135-.415.185s-.264.082-.372.093c-.527.057-1.045.014-1.551-.13-.506-.144-.991-.43-1.452-.856-.462-.428-.893-1.028-1.293-1.8-.401-.772-.759-1.752-1.075-2.94 1.204-.375 2.3-.892 3.287-1.552.988-.659 1.84-1.414 2.557-2.266.716-.852 1.287-1.771 1.71-2.761.423-.989.673-2.01.751-3.05.081-1.093-.04-2.084-.36-2.975-.319-.892-.797-1.663-1.432-2.319"/><path d="m98.73 77.13c-.283-.511-.651-.946-1.106-1.305-.454-.359-.994-.661-1.618-.909-.751-.292-1.699-.483-2.845-.576-1.146-.091-2.372-.066-3.678.073-1.09.118-2.139.312-3.146.584-1.01.271-1.939.604-2.801 1-.48.227-.87.432-1.169.615-.298.183-.537.354-.714.514-.178.158-.302.309-.373.45-.07.142-.11.277-.119.405-.015.2.045.359.178.479.134.119.327.165.579.138.131-.014.283-.068.457-.162.173-.095.349-.228.529-.398.319-.301.705-.578 1.158-.832.451-.251.941-.476 1.466-.673.526-.196 1.079-.36 1.659-.493s1.152-.229 1.715-.289c.539-.059 1.092-.076 1.662-.057.568.021 1.099.074 1.592.16l-.356 4.842c-.743-.246-1.528-.403-2.355-.472-.826-.068-1.635-.06-2.426.026-1.307.14-2.5.438-3.579.892s-2.01 1.023-2.8 1.707c-.788.685-1.412 1.462-1.875 2.334-.462.87-.729 1.793-.801 2.767-.084 1.139.045 2.123.388 2.953.342.832.86 1.506 1.553 2.025.692.52 1.534.88 2.523 1.082.988.202 2.094.238 3.317.106.898-.097 1.775-.306 2.631-.624.855-.319 1.716-.794 2.583-1.422l-.086 1.162 7.691-.828.815-11.04c.069-.928.048-1.737-.062-2.431-.108-.691-.304-1.293-.587-1.803m-7.66 13.427c-.871.699-1.719 1.225-2.541 1.574-.823.351-1.611.566-2.366.648-.072.008-.144.016-.215.022-.072.008-.138.001-.196.004l.827-11.197c.218-.059.447-.102.687-.127.719-.077 1.446-.071 2.182.018.736.091 1.485.28 2.25.57l-.628 8.488"/><path d="m119.12 72.28c-.727-.282-1.489-.469-2.285-.557-.796-.089-1.589-.091-2.38-.006-1.642.177-3.127.593-4.46 1.249-1.332.655-2.48 1.47-3.442 2.439-.964.972-1.724 2.063-2.284 3.277-.559 1.213-.886 2.465-.981 3.756-.107 1.444.041 2.743.443 3.9.401 1.155 1.017 2.12 1.845 2.893.829.772 1.856 1.334 3.084 1.686 1.228.351 2.615.442 4.16.276.863-.093 1.711-.286 2.548-.58.835-.293 1.666-.712 2.49-1.255l-.071.969 7.403-.797 1.84-24.915-7.403.797-.507 6.868m-1.148 15.53c-.792.598-1.603 1.068-2.43 1.414-.828.346-1.644.561-2.446.647-.229.024-.464.041-.708.051-.245.009-.473.007-.687-.005l1.234-16.692c.169-.041.345-.077.524-.108.181-.03.361-.057.541-.076.863-.093 1.712-.076 2.547.05.834.125 1.653.378 2.458.757l-1.033 13.962"/><path d="m131.07 88.9l7.73-.83 1.39-18.81-7.73.84z"/><path d="m139.99 61.53c-.32-.246-.723-.429-1.207-.552-.484-.122-1.049-.149-1.696-.079-.611.065-1.174.202-1.688.409-.514.207-.964.456-1.348.748-.384.292-.69.612-.918.962-.228.352-.355.708-.382 1.072-.065.88.23 1.553.885 2.02.655.464 1.629.627 2.923.488.587-.063 1.138-.192 1.651-.388.514-.195.965-.436 1.355-.722.389-.287.701-.608.935-.966.235-.357.366-.724.394-1.099.026-.353-.038-.695-.192-1.027-.154-.331-.391-.62-.712-.865"/><path d="m161.97 69.43c-.815-.779-1.83-1.357-3.045-1.733-1.213-.376-2.6-.48-4.156-.312-1.486.159-2.879.552-4.179 1.175s-2.44 1.412-3.419 2.367c-.98.956-1.773 2.04-2.38 3.252-.606 1.213-.96 2.494-1.059 3.844-.109 1.479.054 2.801.492 3.965.437 1.164 1.084 2.134 1.941 2.908.858.775 1.893 1.333 3.104 1.675 1.21.341 2.541.434 3.99.277 1.546-.166 2.963-.575 4.254-1.227 1.289-.651 2.414-1.468 3.371-2.45.958-.982 1.724-2.092 2.297-3.33.572-1.238.908-2.532 1.01-3.882.098-1.326-.044-2.551-.424-3.675-.381-1.123-.979-2.075-1.796-2.854m.76 6.739c-.1 1.338-.423 2.555-.974 3.65s-1.254 2.048-2.11 2.855c-.855.809-1.824 1.457-2.906 1.947-1.082.489-2.199.795-3.348.919-.085.009-.172.019-.262.028s-.182.013-.276.013l1.243-16.833c.084-.021.169-.035.253-.045.083-.009.173-.019.271-.028 1.281-.139 2.439-.063 3.477.229 1.036.289 1.913.763 2.632 1.419.718.656 1.254 1.479 1.608 2.464.354.987.485 2.113.392 3.382"/><path d="m182.45 75.75c-.14-.532-.417-1.07-.835-1.613-.418-.542-1-1.117-1.754-1.724-.752-.605-1.711-1.294-2.878-2.065-.591-.367-1.067-.7-1.433-.999-.364-.298-.647-.563-.852-.79-.203-.229-.339-.43-.409-.603-.071-.173-.101-.33-.09-.471.021-.27.179-.525.476-.767s.799-.4 1.506-.477c.658-.07 1.377-.055 2.154.048.776.103 1.489.341 2.139.713.262.17.469.313.62.431.151.118.323.166.515.145.203-.021.361-.105.473-.251.111-.146.174-.295.186-.449.023-.328-.145-.622-.506-.879-.361-.258-.855-.482-1.483-.67-.268-.077-.566-.14-.896-.192-.329-.052-.68-.087-1.053-.105-.373-.017-.754-.023-1.141-.016-.386.006-.759.029-1.119.068-1.174.126-2.247.381-3.221.766-.973.384-1.813.856-2.52 1.415-.707.56-1.268 1.183-1.68 1.867-.413.686-.647 1.392-.701 2.119-.042.575.013 1.128.164 1.66.15.53.453 1.092.909 1.684.456.591 1.085 1.23 1.89 1.918s1.847 1.476 3.123 2.362c.622.434 1.119.791 1.491 1.071.371.28.656.523.855.729.198.206.324.385.379.536.054.151.075.314.062.491-.012.164-.084.338-.217.521-.133.184-.329.356-.591.518-.262.162-.591.306-.985.43-.396.124-.863.216-1.401.273-.491.053-.983.07-1.476.054s-.963-.07-1.414-.161c-.451-.092-.866-.217-1.247-.373-.38-.157-.706-.344-.976-.559-.156-.134-.296-.253-.419-.356s-.269-.146-.437-.128c-.238.025-.428.119-.563.279-.137.16-.212.328-.225.504-.037.493.388.942 1.273 1.348.321.152.688.278 1.104.379.415.102.852.18 1.311.234.46.056.933.083 1.42.083s.959-.024 1.415-.073c1.341-.145 2.563-.431 3.663-.857 1.102-.427 2.05-.96 2.847-1.599.796-.64 1.426-1.365 1.89-2.179.464-.812.73-1.677.798-2.592.045-.6-.003-1.165-.141-1.698"/></g><g fill="#331f26"><path d="m85.58 32.399c-1.821.196-2.771.953-2.854 2.268-.042.658.22 1.213.787 1.665.565.453 1.208.639 1.926.563.719-.078 1.391-.371 2.02-.883.626-.511.959-1.071.998-1.682.038-.611-.251-1.104-.87-1.481-.619-.376-1.287-.527-2.01-.45"/><path d="m192.48 30.01c.064-.262.104-.501.116-.712.014-.211-.146-.485-.483-.822-.335-.337-.814-.472-1.437-.405l-1.019.319c-.049.005-.112-.116-.191-.365-.08-.247-.18-.551-.299-.913-.414-.981-1.436-1.385-3.063-1.209-4.02.434-8.639 3.288-13.846 8.562-2.275 2.305-4.073 4.433-5.396 6.385-5.872 6.977-9.921 10.593-12.135 10.832-.815.088-1.307-.395-1.479-1.45-.039-.136-.054-.274-.045-.415.107-1.692 1.779-4.846 5.02-9.465 3.24-4.618 4.868-7.05 4.883-7.28.015-.235-.204-.538-.656-.909-.452-.371-.942-.529-1.469-.472l-1.019.32c-.049.005-.112-.116-.191-.364-.08-.248-.179-.551-.299-.913-.459-1.023-1.479-1.451-3.059-1.28-4.071.439-8.698 3.307-13.884 8.601-1.932 1.973-3.518 3.816-4.76 5.53-.167.153-.348.326-.554.538-3.267 3.525-6.293 6.255-9.08 8.188-1.044.719-2.522 1.531-4.435 2.437-1.912.906-3.442 1.421-4.592 1.545-2.442.264-3.609-.474-3.5-2.213.116-1.832 1.52-4.863 4.212-9.1 2.693-4.232 4.518-6.796 5.479-7.694.487-.193 3.736-.985 9.746-2.381 6.01-1.394 9.03-2.303 9.06-2.726.002-.046-.065-.109-.203-.188l-10.353 1.256c-2.01.217-3.639.369-4.881.457 2.459-2.785 3.704-4.435 3.737-4.953.033-.517-.298-.923-.994-1.222-.694-.298-1.282-.421-1.76-.371-.479.052-1.443.996-2.89 2.832-1.19 1.528-2.25 2.879-3.181 4.053l-4.166.449c-.29.078-.507.124-.651.139-1.17.453-1.78 1.079-1.83 1.877-.068 1.081.591 1.546 1.981 1.396.478-.052 1.057-.184 1.737-.397-1.014 1.743-2.488 4.387-4.424 7.931-.267.489-.513.959-.745 1.417-.206.276-.363.478-.451.567-5.579 6.248-9.421 9.485-11.527 9.712-.672.072-.959-.643-.864-2.147.094-1.503.942-3.461 2.545-5.874 1.603-2.412 3.535-4.953 5.796-7.624 1.964-2.498 3-3.869 3.113-4.115.11-.245.172-.485.188-.721.074-1.173-.561-1.688-1.9-1.544-.192.021-.409.068-.651.141-2.395.258-9.516 6.462-21.363 18.61 1.051-3.099 3.917-7.817 8.597-14.155.161-.297.251-.586.269-.868.063-.987-.553-1.411-1.846-1.271-.479.052-.951.383-1.418.993-4.163 4.928-6.918 8.258-8.263 9.99-1.394 1.737-3.03 3.57-4.913 5.498-.149.153-.263.296-.36.435-1.9 1.812-4.084 3.573-6.566 5.282-1.792 1.267-3.191 1.954-4.196 2.062-1.198.129-1.742-.663-1.634-2.378.108-1.714 2.102-5.04 5.98-9.988.672-.866 1.372-1.769 2.097-2.711.725-.941 1.294-1.667 1.708-2.179.413-.51.798-.983 1.16-1.419.359-.435.67-.831.931-1.186.023-.375-.252-.719-.827-1.031-.576-.311-1.103-.44-1.581-.389-1.727.233-4.146 2.746-7.252 7.536-3.11 4.792-4.742 8.455-4.902 10.992-.195 3.101.928 4.52 3.371 4.256 1.388-.15 2.599-.491 3.631-1.021.64-.349 1.206-.655 1.699-.918.491-.263 1.064-.663 1.716-1.199.651-.537 1.153-.94 1.504-1.212.349-.271.867-.734 1.55-1.393.683-.656 1.151-1.104 1.404-1.34.252-.238.723-.72 1.411-1.448.267-.282.582-.615.921-.975.014-.015.024-.023.038-.038l.288-.308c.458-.485.971-1.03 1.544-1.639.109-.116.188-.209.287-.317l2.471-2.64c-1.089 2.172-1.991 4.02-2.705 5.542s-1.099 2.72-1.153 3.588c-.055.87.103 1.576.473 2.119.369.544.914.777 1.632.699.334-.036 1.627-1.481 3.876-4.337 2.25-2.855 4.73-5.816 7.445-8.886 2.714-3.068 5.773-5.952 9.178-8.654l-5.06 7.825c-2.124 3.496-3.264 6.511-3.423 9.05-.16 2.537.933 3.679 3.279 3.426 2.218-.239 5.974-3.261 11.26-9.05-.503 1.347-.786 2.498-.846 3.449-.121 1.927.265 3.156 1.159 3.69.893.534 2.082.72 3.567.56 3.399-.366 7.04-1.878 10.917-4.536 2.305-1.548 4.464-3.391 6.49-5.504-.498 1.176-.784 2.273-.848 3.286-.098 1.55.471 2.726 1.704 3.525 1.1.675 2.283.944 3.553.807 1.268-.137 3.393-1.579 6.373-4.327l4.72-4.709c-.242.82-.388 1.629-.438 2.428-.146 2.302.811 3.739 2.867 4.311.375.099.777.126 1.208.08 2.407-.26 5.779-2.869 10.115-7.827-.228.731-.365 1.429-.407 2.091-.098 1.55.471 2.726 1.704 3.526 1.097.721 2.278 1.015 3.548.877 1.268-.137 3.729-2.01 7.383-5.625l5.724-5.936-4.03 7.363c-2.775 4.779-5.266 8.453-7.473 11.02-3.336 3.859-6.367 5.936-9.1 6.23-.67.072-1.318-.185-1.949-.77-.628-.586-1.023-1.477-1.187-2.672-.075-.319-.185-.47-.328-.455-.288.031-.521.336-.7.916-.04 1.404.417 2.625 1.375 3.666.958 1.04 2.13 1.485 3.518 1.336 3.976-.429 8.346-3.747 13.11-9.953 2.225-2.854 5.501-8.03 9.827-15.547 1.225-2.092 2.766-4.66 4.623-7.707 1.475-2.264 2.245-3.524 2.309-3.789m-41.539 13.822c-5.165 6.483-9.137 9.874-11.914 10.173-1.197.13-1.742-.652-1.636-2.343.184-2.912 2.833-6.849 7.951-11.811 5.115-4.961 9.135-7.599 12.06-7.914.861-.093 1.463.169 1.806.786l-8.264 11.11m29.695-3.621c-5.165 6.483-9.137 9.873-11.913 10.173-1.198.129-1.744-.652-1.637-2.344.178-2.819 2.825-6.731 7.946-11.74 5.119-5.01 9.163-7.672 12.133-7.992.908-.098 1.488.167 1.734.792l-8.263 11.11"/><path d="m214.1 33.732c-.312.034-.7.356-1.166.966-2.223 2.807-4.867 5.518-7.933 8.133-3.982 3.557-7.158 5.462-9.528 5.717-2.371.256-3.479-.838-3.325-3.281.089-1.41.532-2.787 1.331-4.132.281.063.612.073.997.032 2.537-.273 5.905-1.826 10.1-4.659 4.196-2.832 6.379-5.563 6.544-8.194.054-.846-.248-1.524-.905-2.038-.658-.512-1.538-.708-2.639-.589-3.353.36-7.272 2.93-11.759 7.706-4.485 4.777-6.833 8.81-7.04 12.1-.16 2.537 1.267 4.063 4.277 4.578.422.094.896.113 1.423.057 2.539-.274 5.709-1.898 9.511-4.875 3.803-2.976 7.103-6.271 9.898-9.886.416-.558.633-.978.65-1.26.019-.281-.13-.405-.44-.373m-11.923-2.703c2.366-2.075 4.16-3.178 5.382-3.31 1.221-.132 1.813.084 1.778.648-.012.188-.073.405-.184.65-.909 2.338-2.943 4.621-6.104 6.852-3.161 2.23-5.65 3.444-7.471 3.64-.335.036-.644.023-.926-.04 1.846-2.859 4.354-5.671 7.525-8.44"/><path d="m112.67 5.514c.633-.068 1.395.004 2.29.215.893.212 1.374.314 1.445.307.632-.069.977-.55 1.033-1.446.113-1.792-.775-2.653-2.663-2.587-.487-.016-1.223.028-2.206.134-3.653.395-7.276 1.727-10.874 3.996-3.595 2.27-8.113 5.58-13.548 9.929-6.091 4.763-17.15 16.718-33.18 35.861-16.03 19.14-24.997 29.403-26.897 30.77-.365.245-.529.092-.493-.461.111-1.791 3.76-9.864 10.942-24.22 7.185-14.359 10.978-24.742 11.381-31.15.318-5.03-1.34-8.616-4.973-10.755-3.229-1.912-7.475-2.583-12.743-2.02-7.236.78-14.792 3.614-22.668 8.5-7.878 4.889 13.471-5.353 18.738-5.919 5.268-.569 9.229.237 11.881 2.413 2.653 2.178 3.831 5.644 3.531 10.398-.135 2.137-1.192 5.638-3.172 10.504l-5.725 14.477c-3.544 7.5-6.235 13.13-8.08 16.884-4.519 9.725-6.851 15.725-6.994 17.999-.042.687.041 1.021.251.999.702-.075 3.999-2.01 9.888-5.788 1.671-1.07 7.334-7.633 16.989-19.693 9.654-12.06 17.812-21.697 24.478-28.918 17.745-19.224 31.534-29.369 41.37-30.43"/></g><g fill="#ffe682"><path d="m84.58 30.399c-1.821.196-2.771.953-2.854 2.268-.042.658.22 1.213.787 1.665.565.453 1.208.639 1.926.563.719-.078 1.391-.371 2.02-.883.626-.511.959-1.071.998-1.682.038-.611-.251-1.104-.87-1.481-.619-.376-1.287-.527-2.01-.45"/><path d="m191.48 28.01c.064-.262.104-.501.116-.712.014-.211-.146-.485-.483-.822-.335-.337-.814-.472-1.437-.405l-1.019.319c-.049.005-.112-.116-.191-.365-.08-.247-.18-.551-.299-.913-.414-.981-1.436-1.385-3.063-1.209-4.02.434-8.639 3.288-13.846 8.562-2.275 2.305-4.073 4.433-5.396 6.385-5.872 6.977-9.921 10.593-12.135 10.832-.815.088-1.307-.395-1.479-1.45-.039-.136-.054-.274-.045-.415.107-1.692 1.779-4.846 5.02-9.465 3.24-4.618 4.868-7.05 4.883-7.28.015-.235-.204-.538-.656-.909-.452-.371-.942-.529-1.469-.472l-1.019.32c-.049.005-.112-.116-.191-.364-.08-.248-.179-.551-.299-.913-.459-1.023-1.479-1.451-3.059-1.28-4.071.439-8.698 3.307-13.884 8.601-1.932 1.973-3.518 3.816-4.76 5.53-.167.153-.348.326-.554.538-3.267 3.525-6.293 6.255-9.08 8.188-1.044.719-2.522 1.531-4.435 2.437-1.912.906-3.442 1.421-4.592 1.545-2.442.264-3.609-.474-3.5-2.213.116-1.832 1.52-4.863 4.212-9.1 2.693-4.232 4.518-6.796 5.479-7.694.487-.193 3.736-.985 9.746-2.381 6.01-1.394 9.03-2.303 9.06-2.726.002-.046-.065-.109-.203-.188l-10.353 1.256c-2.01.217-3.639.369-4.881.457 2.459-2.785 3.704-4.435 3.737-4.953.033-.517-.298-.923-.994-1.222-.694-.298-1.282-.421-1.76-.371-.479.052-1.443.996-2.89 2.832-1.19 1.528-2.25 2.879-3.181 4.053l-4.166.449c-.29.078-.507.124-.651.139-1.17.453-1.78 1.079-1.83 1.877-.068 1.081.591 1.546 1.981 1.396.478-.052 1.057-.184 1.737-.397-1.014 1.743-2.488 4.387-4.424 7.931-.267.489-.513.959-.745 1.417-.206.276-.363.478-.451.567-5.579 6.248-9.421 9.485-11.527 9.712-.672.072-.959-.643-.864-2.147.094-1.503.942-3.461 2.545-5.874 1.603-2.412 3.535-4.953 5.796-7.624 1.964-2.498 3-3.869 3.113-4.115.11-.245.172-.485.188-.721.074-1.173-.561-1.688-1.9-1.544-.192.021-.409.068-.651.141-2.395.258-9.516 6.462-21.363 18.61 1.051-3.099 3.917-7.817 8.597-14.155.161-.297.251-.586.269-.868.063-.987-.553-1.411-1.846-1.271-.479.052-.951.383-1.418.993-4.163 4.928-6.918 8.258-8.263 9.99-1.394 1.737-3.03 3.57-4.913 5.498-.149.153-.263.296-.36.435-1.9 1.812-4.084 3.573-6.566 5.282-1.792 1.267-3.191 1.954-4.196 2.062-1.198.129-1.742-.663-1.634-2.378.108-1.714 2.102-5.04 5.98-9.988.672-.866 1.372-1.769 2.097-2.711.725-.941 1.294-1.667 1.708-2.179.413-.51.798-.983 1.16-1.419.359-.435.67-.831.931-1.186.023-.375-.252-.719-.827-1.031-.576-.311-1.103-.44-1.581-.389-1.727.233-4.146 2.746-7.252 7.536-3.11 4.792-4.742 8.455-4.902 10.992-.195 3.101.928 4.52 3.371 4.256 1.388-.15 2.599-.491 3.631-1.021.64-.349 1.206-.655 1.699-.918.491-.263 1.064-.663 1.716-1.199.651-.537 1.153-.94 1.504-1.212.349-.271.867-.734 1.55-1.393.683-.656 1.151-1.104 1.404-1.34.252-.238.723-.72 1.411-1.448.267-.282.582-.615.921-.975.014-.015.024-.023.038-.038l.288-.308c.458-.485.971-1.03 1.544-1.639.109-.116.188-.209.287-.317l2.471-2.64c-1.089 2.172-1.991 4.02-2.705 5.542s-1.099 2.72-1.153 3.588c-.055.87.103 1.576.473 2.119.369.544.914.777 1.632.699.334-.036 1.627-1.481 3.876-4.337 2.25-2.855 4.73-5.816 7.445-8.886 2.714-3.068 5.773-5.952 9.178-8.654l-5.06 7.825c-2.124 3.496-3.264 6.511-3.423 9.05-.16 2.537.933 3.679 3.279 3.426 2.218-.239 5.974-3.261 11.26-9.05-.503 1.347-.786 2.498-.846 3.449-.121 1.927.265 3.156 1.159 3.69.893.534 2.082.72 3.567.56 3.399-.366 7.04-1.878 10.917-4.536 2.305-1.548 4.464-3.391 6.49-5.504-.498 1.176-.784 2.273-.848 3.286-.098 1.55.471 2.726 1.704 3.525 1.1.675 2.283.944 3.553.807 1.268-.137 3.393-1.579 6.373-4.327l4.72-4.709c-.242.82-.388 1.629-.438 2.428-.146 2.302.811 3.739 2.867 4.311.375.099.777.126 1.208.08 2.407-.26 5.779-2.869 10.115-7.827-.228.731-.365 1.429-.407 2.091-.098 1.55.471 2.726 1.704 3.526 1.097.721 2.278 1.015 3.548.877 1.268-.137 3.729-2.01 7.383-5.625l5.724-5.936-4.03 7.363c-2.775 4.779-5.266 8.453-7.473 11.02-3.336 3.859-6.367 5.936-9.1 6.23-.67.072-1.318-.185-1.949-.77-.628-.586-1.023-1.477-1.187-2.672-.075-.319-.185-.47-.328-.455-.288.031-.521.336-.7.916-.04 1.404.417 2.625 1.375 3.666.958 1.04 2.13 1.485 3.518 1.336 3.976-.429 8.346-3.747 13.11-9.953 2.225-2.854 5.501-8.03 9.827-15.547 1.225-2.092 2.766-4.66 4.623-7.707 1.475-2.264 2.245-3.524 2.309-3.789m-41.539 13.822c-5.165 6.483-9.137 9.874-11.914 10.173-1.197.13-1.742-.652-1.636-2.343.184-2.912 2.833-6.849 7.951-11.811 5.115-4.961 9.135-7.599 12.06-7.914.861-.093 1.463.169 1.806.786l-8.264 11.11m29.695-3.621c-5.165 6.483-9.137 9.873-11.913 10.173-1.198.129-1.744-.652-1.637-2.344.178-2.819 2.825-6.731 7.946-11.74 5.119-5.01 9.163-7.672 12.133-7.992.908-.098 1.488.167 1.734.792l-8.263 11.11"/><path d="m213.1 31.732c-.312.034-.7.356-1.166.966-2.223 2.807-4.867 5.518-7.933 8.133-3.982 3.557-7.158 5.462-9.528 5.717-2.371.256-3.479-.838-3.325-3.281.089-1.41.532-2.787 1.331-4.132.281.063.612.073.997.032 2.537-.273 5.905-1.826 10.1-4.659 4.196-2.832 6.379-5.563 6.544-8.194.054-.846-.248-1.524-.905-2.038-.658-.512-1.538-.708-2.639-.589-3.353.36-7.272 2.93-11.759 7.706-4.485 4.777-6.833 8.81-7.04 12.1-.16 2.537 1.267 4.063 4.277 4.578.422.094.896.113 1.423.057 2.539-.274 5.709-1.898 9.511-4.875 3.803-2.976 7.103-6.271 9.898-9.886.416-.558.633-.978.65-1.26.019-.281-.13-.405-.44-.373m-11.923-2.703c2.366-2.075 4.16-3.178 5.382-3.31 1.221-.132 1.813.084 1.778.648-.012.188-.073.405-.184.65-.909 2.338-2.943 4.621-6.104 6.852-3.161 2.23-5.65 3.444-7.471 3.64-.335.036-.644.023-.926-.04 1.846-2.859 4.354-5.671 7.525-8.44"/><path d="m111.67 3.514c.633-.068 1.395.004 2.29.215.893.212 1.374.314 1.445.307.632-.069.977-.55 1.033-1.446.113-1.792-.775-2.653-2.663-2.587-.487-.016-1.223.028-2.206.134-3.653.395-7.276 1.727-10.874 3.996-3.595 2.27-8.113 5.58-13.548 9.929-6.091 4.763-17.15 16.718-33.18 35.861-16.03 19.14-24.997 29.403-26.897 30.77-.365.245-.529.092-.493-.461.111-1.791 3.76-9.864 10.942-24.22 7.185-14.359 10.978-24.742 11.381-31.15.318-5.03-1.34-8.616-4.973-10.755-3.229-1.912-7.475-2.583-12.743-2.02-7.236.78-14.792 3.614-22.668 8.5-7.878 4.889 13.471-5.353 18.738-5.919 5.268-.569 9.229.237 11.881 2.413 2.653 2.178 3.831 5.644 3.531 10.398-.135 2.137-1.192 5.638-3.172 10.504l-5.725 14.477c-3.544 7.5-6.235 13.13-8.08 16.884-4.519 9.725-6.851 15.725-6.994 17.999-.042.687.041 1.021.251.999.702-.075 3.999-2.01 9.888-5.788 1.671-1.07 7.334-7.633 16.989-19.693 9.654-12.06 17.812-21.697 24.478-28.918 17.745-19.224 31.534-29.369 41.37-30.43"/></g></svg>